<svg xmlns="http://www.w3.org/2000/svg" xmlns:xlink="http://www.w3.org/1999/xlink" width="500" zoomAndPan="magnify" viewBox="0 0 375 374.999991" height="500" preserveAspectRatio="xMidYMid meet" version="1.0"><defs><clipPath id="89cb1bec90"><path d="M 32 62 L 374 62 L 374 365.902344 L 32 365.902344 Z M 32 62 " clip-rule="nonzero"/></clipPath></defs><g clip-path="url(#89cb1bec90)"><path fill="#696cff" d="M 351.570312 152.988281 C 349.074219 149.191406 343.972656 148.136719 340.1875 150.640625 C 336.546875 153.039062 332.328125 154.304688 327.996094 154.304688 C 320.484375 154.304688 313.535156 150.5625 309.410156 144.300781 C 302.675781 134.070312 305.519531 120.265625 315.75 113.527344 C 319.542969 111.03125 320.589844 105.933594 318.09375 102.144531 L 300.359375 75.207031 C 295.210938 67.382812 286.535156 62.710938 277.15625 62.710938 C 271.730469 62.710938 266.460938 64.289062 261.914062 67.285156 L 44.65625 210.316406 C 38.464844 214.394531 34.230469 220.636719 32.734375 227.898438 C 31.238281 235.160156 32.660156 242.570312 36.738281 248.761719 L 54.472656 275.703125 C 55.667969 277.523438 57.542969 278.792969 59.679688 279.234375 C 61.808594 279.664062 64.03125 279.246094 65.855469 278.046875 C 69.496094 275.648438 73.710938 274.382812 78.046875 274.382812 C 85.558594 274.382812 92.503906 278.125 96.628906 284.386719 C 103.367188 294.621094 100.519531 308.421875 90.289062 315.160156 C 88.464844 316.359375 87.199219 318.230469 86.757812 320.363281 C 86.316406 322.5 86.742188 324.722656 87.941406 326.542969 L 105.675781 353.484375 C 110.828125 361.308594 119.5 365.980469 128.878906 365.980469 C 134.304688 365.980469 139.578125 364.398438 144.125 361.40625 L 361.378906 218.375 C 367.574219 214.296875 371.808594 208.054688 373.304688 200.792969 C 374.800781 193.527344 373.378906 186.121094 369.300781 179.925781 Z M 352.34375 204.640625 L 310.578125 232.140625 L 308.316406 228.707031 C 306.441406 225.863281 302.617188 225.078125 299.777344 226.949219 C 296.933594 228.820312 296.144531 232.644531 298.019531 235.488281 L 300.277344 238.921875 L 135.089844 347.675781 C 133.234375 348.894531 131.085938 349.539062 128.882812 349.539062 C 125.050781 349.539062 121.511719 347.636719 119.410156 344.445312 L 105.710938 323.636719 C 118.152344 310.925781 120.53125 290.796875 110.363281 275.347656 C 103.1875 264.453125 91.105469 257.945312 78.046875 257.945312 C 73.265625 257.945312 68.570312 258.828125 64.164062 260.53125 L 50.46875 239.722656 C 48.804688 237.199219 48.226562 234.179688 48.835938 231.21875 C 49.445312 228.257812 51.171875 225.710938 53.695312 224.046875 L 218.886719 115.292969 L 221.148438 118.726562 C 222.335938 120.527344 224.300781 121.5 226.304688 121.5 C 227.46875 121.5 228.644531 121.171875 229.6875 120.484375 C 232.53125 118.613281 233.316406 114.789062 231.445312 111.949219 L 229.1875 108.511719 L 270.953125 81.011719 C 276.039062 77.667969 283.320312 79.214844 286.628906 84.242188 L 300.328125 105.050781 C 287.890625 117.765625 285.511719 137.894531 295.679688 153.339844 C 302.855469 164.238281 314.9375 170.742188 327.996094 170.742188 C 332.777344 170.742188 337.46875 169.859375 341.875 168.15625 L 355.574219 188.960938 C 359.007812 194.175781 357.558594 201.210938 352.34375 204.640625 Z M 352.34375 204.640625 " fill-opacity="1" fill-rule="nonzero"/></g><path fill="#696cff" d="M 277.570312 182 C 275.699219 179.15625 271.878906 178.371094 269.03125 180.238281 C 266.1875 182.113281 265.398438 185.933594 267.269531 188.777344 L 282.640625 212.132812 C 283.824219 213.929688 285.792969 214.90625 287.796875 214.90625 C 288.960938 214.90625 290.136719 214.578125 291.179688 213.890625 C 294.023438 212.019531 294.8125 208.195312 292.941406 205.351562 Z M 277.570312 182 " fill-opacity="1" fill-rule="nonzero"/><path fill="#696cff" d="M 246.820312 135.296875 C 244.953125 132.457031 241.132812 131.667969 238.285156 133.535156 C 235.441406 135.410156 234.652344 139.230469 236.523438 142.074219 L 251.894531 165.425781 C 253.078125 167.226562 255.046875 168.203125 257.050781 168.203125 C 258.210938 168.203125 259.390625 167.875 260.433594 167.1875 C 263.277344 165.3125 264.066406 161.492188 262.195312 158.648438 Z M 246.820312 135.296875 " fill-opacity="1" fill-rule="nonzero"/><path fill="#696cff" d="M 191.695312 64.5 C 191.707031 64.578125 191.726562 64.65625 191.738281 64.738281 C 191.804688 65.027344 191.824219 65.320312 191.898438 65.609375 C 191.925781 65.707031 191.972656 65.789062 192 65.886719 C 192.03125 65.980469 192.035156 66.078125 192.066406 66.175781 C 195.96875 77.730469 203.722656 85.863281 213.898438 89.078125 C 214.722656 89.335938 215.558594 89.460938 216.375 89.460938 C 219.867188 89.460938 223.105469 87.21875 224.210938 83.710938 C 225.578125 79.382812 223.175781 74.765625 218.847656 73.402344 C 213.894531 71.835938 209.980469 67.527344 207.777344 61.269531 C 206.355469 55.546875 207.210938 49.621094 210.226562 44.550781 C 211.34375 42.675781 211.667969 40.4375 211.132812 38.324219 C 210.597656 36.210938 209.242188 34.398438 207.371094 33.285156 L 179.535156 16.707031 C 166.484375 8.933594 149.46875 13.171875 141.601562 26.160156 C 118.519531 64.289062 75.535156 135.414062 47.023438 183.296875 C 44.699219 187.199219 45.980469 192.242188 49.882812 194.566406 C 51.199219 195.351562 52.648438 195.726562 54.078125 195.726562 C 56.878906 195.726562 59.609375 194.289062 61.148438 191.710938 C 79.019531 161.695312 102.582031 122.542969 123.363281 88.113281 L 126.1875 89.792969 C 127.175781 90.382812 128.261719 90.664062 129.335938 90.664062 C 131.4375 90.664062 133.484375 89.589844 134.636719 87.652344 C 136.382812 84.726562 135.421875 80.945312 132.496094 79.203125 L 129.734375 77.558594 C 139.589844 61.238281 148.574219 46.386719 155.667969 34.667969 C 158.863281 29.382812 165.808594 27.660156 171.125 30.828125 L 192.648438 43.644531 C 190.394531 50.328125 190.089844 57.488281 191.695312 64.5 Z M 191.695312 64.5 " fill-opacity="1" fill-rule="nonzero"/><path fill="#696cff" d="M 25.207031 252.488281 C 27.53125 248.589844 26.253906 243.546875 22.351562 241.222656 C 18.449219 238.902344 13.40625 240.175781 11.085938 244.078125 C 9.964844 245.960938 8.804688 247.96875 7.660156 249.984375 C 0.238281 263.054688 4.679688 279.929688 17.5625 287.601562 L 45.894531 304.472656 C 47.179688 305.234375 48.628906 305.628906 50.101562 305.628906 C 50.777344 305.628906 51.453125 305.546875 52.121094 305.375 C 54.234375 304.839844 56.046875 303.484375 57.164062 301.613281 C 58.132812 299.984375 59.296875 298.492188 60.628906 297.175781 C 63.851562 293.984375 63.878906 288.78125 60.6875 285.550781 C 57.492188 282.328125 52.289062 282.304688 49.0625 285.496094 C 48.699219 285.851562 48.34375 286.21875 47.996094 286.589844 L 25.972656 273.476562 C 20.632812 270.292969 18.863281 263.542969 21.957031 258.097656 C 23.042969 256.183594 24.144531 254.277344 25.207031 252.488281 Z M 25.207031 252.488281 " fill-opacity="1" fill-rule="nonzero"/><path fill="#696cff" d="M 150.0625 89.660156 L 143.617188 100.171875 C 143.617188 100.171875 158.269531 109.152344 161.015625 110.789062 C 162.007812 111.378906 163.09375 111.65625 164.164062 111.65625 C 166.265625 111.65625 168.316406 110.582031 169.464844 108.644531 C 171.207031 105.71875 170.246094 101.933594 167.320312 100.195312 C 164.59375 98.570312 150.0625 89.664062 150.0625 89.660156 Z M 150.0625 89.660156 " fill-opacity="1" fill-rule="nonzero"/><path fill="#696cff" d="M 226.15625 213.382812 L 227.617188 196.070312 C 227.945312 192.15625 226.667969 188.414062 224.015625 185.535156 C 220.488281 181.699219 214.914062 180.132812 209.894531 181.601562 L 193.222656 186.492188 L 177.207031 179.757812 C 175.484375 179.03125 173.675781 178.664062 171.828125 178.664062 C 164.277344 178.664062 158.1875 184.582031 157.96875 192.136719 L 157.472656 209.503906 L 146.117188 222.652344 C 143.128906 226.117188 142.039062 230.824219 143.203125 235.25 C 144.371094 239.675781 147.636719 243.238281 151.949219 244.777344 L 168.308594 250.617188 L 177.304688 265.480469 C 179.839844 269.667969 184.277344 272.164062 189.171875 272.164062 C 193.5 272.164062 197.5 270.199219 200.144531 266.773438 L 210.761719 253.019531 L 227.675781 249.054688 C 232.128906 248.011719 235.78125 244.839844 237.4375 240.574219 C 239.09375 236.308594 238.542969 231.507812 235.957031 227.730469 Z M 225.945312 236.109375 C 225.8125 236.449219 225.515625 236.894531 224.863281 237.046875 L 205.8125 241.511719 C 204.433594 241.835938 203.207031 242.625 202.339844 243.746094 L 190.386719 259.238281 C 190.003906 259.734375 189.515625 259.835938 189.175781 259.835938 C 188.847656 259.835938 188.246094 259.738281 187.855469 259.09375 L 177.722656 242.359375 C 176.988281 241.144531 175.855469 240.222656 174.519531 239.746094 L 156.097656 233.164062 C 155.464844 232.941406 155.222656 232.464844 155.128906 232.109375 C 155.03125 231.75 155.011719 231.21875 155.449219 230.710938 L 168.238281 215.902344 C 169.164062 214.828125 169.691406 213.46875 169.734375 212.050781 L 170.296875 192.492188 C 170.324219 191.46875 171.230469 190.992188 171.832031 190.992188 C 172.03125 190.992188 172.226562 191.035156 172.429688 191.121094 L 190.464844 198.707031 C 191.777344 199.253906 193.238281 199.339844 194.585938 198.9375 L 213.367188 193.433594 C 213.957031 193.257812 214.535156 193.433594 214.941406 193.875 C 215.234375 194.199219 215.371094 194.589844 215.332031 195.035156 L 213.6875 214.53125 C 213.570312 215.945312 213.941406 217.355469 214.742188 218.527344 L 225.78125 234.683594 C 226.15625 235.238281 226.078125 235.761719 225.945312 236.109375 Z M 225.945312 236.109375 " fill-opacity="1" fill-rule="nonzero"/></svg>