<svg xmlns="http://www.w3.org/2000/svg" xmlns:xlink="http://www.w3.org/1999/xlink" width="150" zoomAndPan="magnify" viewBox="0 0 112.5 30.000001" height="40" preserveAspectRatio="xMidYMid meet" version="1.0"><defs><g/><clipPath id="c6cdf68228"><path d="M 15 4 L 42.949219 4 L 42.949219 28.9375 L 15 28.9375 Z M 15 4 " clip-rule="nonzero"/></clipPath><clipPath id="206ec25be6"><path d="M 12.53125 18 L 18 18 L 18 25 L 12.53125 25 Z M 12.53125 18 " clip-rule="nonzero"/></clipPath></defs><g clip-path="url(#c6cdf68228)"><path fill="#696cff" d="M 41.089844 11.710938 C 40.886719 11.402344 40.46875 11.316406 40.164062 11.519531 C 39.867188 11.714844 39.523438 11.816406 39.171875 11.816406 C 38.5625 11.816406 37.996094 11.511719 37.660156 11.003906 C 37.113281 10.171875 37.34375 9.050781 38.175781 8.503906 C 38.484375 8.300781 38.570312 7.886719 38.367188 7.578125 L 36.925781 5.386719 C 36.507812 4.753906 35.800781 4.371094 35.039062 4.371094 C 34.597656 4.371094 34.171875 4.5 33.800781 4.746094 L 16.140625 16.371094 C 15.640625 16.703125 15.292969 17.210938 15.171875 17.800781 C 15.050781 18.390625 15.167969 18.992188 15.5 19.496094 L 16.941406 21.683594 C 17.039062 21.832031 17.191406 21.9375 17.363281 21.972656 C 17.535156 22.007812 17.71875 21.972656 17.867188 21.875 C 18.160156 21.679688 18.503906 21.578125 18.855469 21.578125 C 19.464844 21.578125 20.03125 21.882812 20.367188 22.390625 C 20.914062 23.222656 20.683594 24.34375 19.851562 24.890625 C 19.703125 24.988281 19.601562 25.140625 19.5625 25.316406 C 19.527344 25.488281 19.5625 25.667969 19.660156 25.816406 L 21.101562 28.007812 C 21.519531 28.644531 22.226562 29.023438 22.988281 29.023438 C 23.429688 29.023438 23.855469 28.894531 24.226562 28.652344 L 41.886719 17.023438 C 42.390625 16.695312 42.734375 16.1875 42.855469 15.597656 C 42.976562 15.003906 42.859375 14.402344 42.527344 13.898438 Z M 41.152344 15.910156 L 37.757812 18.144531 L 37.574219 17.863281 C 37.421875 17.632812 37.109375 17.570312 36.878906 17.722656 C 36.648438 17.875 36.582031 18.183594 36.734375 18.417969 L 36.917969 18.695312 L 23.492188 27.535156 C 23.339844 27.632812 23.167969 27.6875 22.988281 27.6875 C 22.675781 27.6875 22.390625 27.53125 22.21875 27.273438 L 21.105469 25.582031 C 22.117188 24.546875 22.308594 22.910156 21.484375 21.65625 C 20.898438 20.769531 19.917969 20.242188 18.855469 20.242188 C 18.46875 20.242188 18.085938 20.3125 17.726562 20.453125 L 16.613281 18.761719 C 16.480469 18.554688 16.433594 18.308594 16.480469 18.070312 C 16.53125 17.828125 16.671875 17.621094 16.875 17.484375 L 30.304688 8.648438 L 30.488281 8.925781 C 30.582031 9.070312 30.742188 9.152344 30.90625 9.152344 C 31 9.152344 31.097656 9.125 31.179688 9.070312 C 31.414062 8.917969 31.476562 8.605469 31.324219 8.375 L 31.140625 8.09375 L 34.535156 5.859375 C 34.949219 5.589844 35.539062 5.714844 35.808594 6.121094 L 36.921875 7.8125 C 35.914062 8.847656 35.71875 10.484375 36.546875 11.738281 C 37.128906 12.625 38.109375 13.152344 39.171875 13.152344 C 39.558594 13.152344 39.941406 13.082031 40.300781 12.941406 L 41.414062 14.632812 C 41.691406 15.058594 41.574219 15.628906 41.152344 15.910156 Z M 41.152344 15.910156 " fill-opacity="1" fill-rule="nonzero"/></g><path fill="#696cff" d="M 35.074219 14.070312 C 34.921875 13.835938 34.609375 13.773438 34.378906 13.925781 C 34.148438 14.078125 34.085938 14.386719 34.234375 14.621094 L 35.484375 16.519531 C 35.582031 16.664062 35.742188 16.742188 35.90625 16.742188 C 36 16.742188 36.09375 16.714844 36.179688 16.660156 C 36.410156 16.507812 36.476562 16.199219 36.324219 15.964844 Z M 35.074219 14.070312 " fill-opacity="1" fill-rule="nonzero"/><path fill="#696cff" d="M 32.574219 10.273438 C 32.421875 10.042969 32.113281 9.976562 31.878906 10.128906 C 31.648438 10.28125 31.585938 10.59375 31.738281 10.824219 L 32.988281 12.722656 C 33.082031 12.867188 33.242188 12.945312 33.40625 12.945312 C 33.5 12.945312 33.597656 12.921875 33.679688 12.863281 C 33.910156 12.710938 33.976562 12.402344 33.824219 12.171875 Z M 32.574219 10.273438 " fill-opacity="1" fill-rule="nonzero"/><path fill="#696cff" d="M 28.09375 4.519531 C 28.09375 4.523438 28.097656 4.53125 28.097656 4.539062 C 28.101562 4.5625 28.105469 4.585938 28.109375 4.609375 C 28.113281 4.617188 28.117188 4.625 28.117188 4.632812 C 28.121094 4.640625 28.121094 4.648438 28.125 4.65625 C 28.441406 5.59375 29.070312 6.253906 29.898438 6.515625 C 29.964844 6.535156 30.03125 6.546875 30.097656 6.546875 C 30.382812 6.546875 30.648438 6.363281 30.738281 6.078125 C 30.847656 5.726562 30.652344 5.351562 30.300781 5.242188 C 29.898438 5.113281 29.578125 4.765625 29.402344 4.253906 C 29.285156 3.789062 29.355469 3.308594 29.601562 2.898438 C 29.691406 2.746094 29.71875 2.5625 29.671875 2.390625 C 29.628906 2.21875 29.519531 2.070312 29.367188 1.980469 L 27.105469 0.632812 C 26.042969 0 24.660156 0.347656 24.023438 1.402344 C 22.144531 4.5 18.652344 10.28125 16.335938 14.175781 C 16.144531 14.492188 16.25 14.902344 16.566406 15.089844 C 16.675781 15.152344 16.792969 15.183594 16.90625 15.183594 C 17.136719 15.183594 17.359375 15.066406 17.484375 14.859375 C 18.933594 12.417969 20.851562 9.234375 22.539062 6.4375 L 22.769531 6.574219 C 22.847656 6.621094 22.9375 6.644531 23.023438 6.644531 C 23.195312 6.644531 23.363281 6.558594 23.457031 6.398438 C 23.597656 6.164062 23.519531 5.855469 23.28125 5.714844 L 23.058594 5.578125 C 23.859375 4.253906 24.589844 3.046875 25.164062 2.09375 C 25.425781 1.664062 25.988281 1.523438 26.421875 1.78125 L 28.171875 2.824219 C 27.988281 3.367188 27.964844 3.949219 28.09375 4.519531 Z M 28.09375 4.519531 " fill-opacity="1" fill-rule="nonzero"/><g clip-path="url(#206ec25be6)"><path fill="#696cff" d="M 14.5625 19.796875 C 14.75 19.480469 14.644531 19.070312 14.328125 18.882812 C 14.011719 18.695312 13.601562 18.796875 13.414062 19.113281 C 13.324219 19.265625 13.226562 19.429688 13.136719 19.59375 C 12.53125 20.65625 12.894531 22.027344 13.941406 22.652344 L 16.242188 24.023438 C 16.347656 24.085938 16.464844 24.117188 16.585938 24.117188 C 16.640625 24.117188 16.695312 24.109375 16.75 24.097656 C 16.921875 24.054688 17.066406 23.941406 17.160156 23.789062 C 17.238281 23.660156 17.332031 23.539062 17.441406 23.429688 C 17.703125 23.171875 17.703125 22.746094 17.445312 22.484375 C 17.183594 22.222656 16.761719 22.222656 16.5 22.480469 C 16.472656 22.511719 16.441406 22.539062 16.414062 22.570312 L 14.625 21.503906 C 14.1875 21.246094 14.046875 20.695312 14.296875 20.253906 C 14.386719 20.097656 14.476562 19.941406 14.5625 19.796875 Z M 14.5625 19.796875 " fill-opacity="1" fill-rule="nonzero"/></g><path fill="#696cff" d="M 24.710938 6.5625 L 24.1875 7.417969 C 24.1875 7.417969 25.375 8.148438 25.601562 8.28125 C 25.679688 8.328125 25.769531 8.351562 25.855469 8.351562 C 26.027344 8.351562 26.191406 8.265625 26.285156 8.105469 C 26.429688 7.867188 26.351562 7.5625 26.113281 7.417969 C 25.890625 7.289062 24.710938 6.5625 24.710938 6.5625 Z M 24.710938 6.5625 " fill-opacity="1" fill-rule="nonzero"/><path fill="#696cff" d="M 30.894531 16.621094 L 31.011719 15.210938 C 31.039062 14.894531 30.9375 14.589844 30.71875 14.355469 C 30.433594 14.042969 29.980469 13.917969 29.574219 14.035156 L 28.21875 14.433594 L 26.914062 13.886719 C 26.777344 13.828125 26.628906 13.796875 26.480469 13.796875 C 25.863281 13.796875 25.371094 14.277344 25.351562 14.894531 L 25.3125 16.304688 L 24.390625 17.371094 C 24.144531 17.65625 24.058594 18.035156 24.152344 18.398438 C 24.246094 18.757812 24.511719 19.046875 24.863281 19.171875 L 26.191406 19.644531 L 26.925781 20.855469 C 27.128906 21.195312 27.492188 21.398438 27.886719 21.398438 C 28.238281 21.398438 28.566406 21.238281 28.78125 20.957031 L 29.644531 19.839844 L 31.019531 19.519531 C 31.378906 19.433594 31.675781 19.175781 31.8125 18.828125 C 31.945312 18.484375 31.902344 18.09375 31.691406 17.785156 Z M 30.878906 18.464844 C 30.867188 18.496094 30.84375 18.53125 30.789062 18.542969 L 29.242188 18.90625 C 29.128906 18.933594 29.027344 18.996094 28.957031 19.085938 L 27.988281 20.347656 C 27.957031 20.386719 27.917969 20.394531 27.886719 20.394531 C 27.863281 20.394531 27.8125 20.386719 27.78125 20.335938 L 26.957031 18.972656 C 26.898438 18.875 26.804688 18.800781 26.699219 18.761719 L 25.199219 18.226562 C 25.148438 18.210938 25.128906 18.171875 25.121094 18.140625 C 25.113281 18.113281 25.113281 18.070312 25.148438 18.027344 L 26.1875 16.824219 C 26.261719 16.738281 26.304688 16.625 26.308594 16.511719 L 26.355469 14.921875 C 26.355469 14.839844 26.429688 14.800781 26.480469 14.800781 C 26.496094 14.800781 26.511719 14.804688 26.527344 14.808594 L 27.992188 15.425781 C 28.101562 15.472656 28.21875 15.476562 28.328125 15.445312 L 29.855469 14.996094 C 29.902344 14.984375 29.949219 15 29.984375 15.035156 C 30.007812 15.058594 30.019531 15.089844 30.015625 15.128906 L 29.882812 16.710938 C 29.871094 16.828125 29.902344 16.941406 29.964844 17.039062 L 30.863281 18.351562 C 30.894531 18.394531 30.886719 18.4375 30.878906 18.464844 Z M 30.878906 18.464844 " fill-opacity="1" fill-rule="nonzero"/><g fill="#000000" fill-opacity="1"><g transform="translate(48.277179, 17.367713)"><g><path d="M 3.359375 -4.71875 C 3.953125 -4.71875 4.425781 -4.546875 4.78125 -4.203125 C 5.132812 -3.859375 5.3125 -3.347656 5.3125 -2.671875 L 5.3125 0 L 4.21875 0 L 4.21875 -2.53125 C 4.21875 -2.9375 4.117188 -3.242188 3.921875 -3.453125 C 3.734375 -3.660156 3.460938 -3.765625 3.109375 -3.765625 C 2.703125 -3.765625 2.382812 -3.644531 2.15625 -3.40625 C 1.925781 -3.164062 1.8125 -2.816406 1.8125 -2.359375 L 1.8125 0 L 0.71875 0 L 0.71875 -6.484375 L 1.8125 -6.484375 L 1.8125 -4.125 C 1.988281 -4.3125 2.207031 -4.457031 2.46875 -4.5625 C 2.738281 -4.664062 3.035156 -4.71875 3.359375 -4.71875 Z M 3.359375 -4.71875 "/></g></g></g><g fill="#000000" fill-opacity="1"><g transform="translate(54.257009, 17.367713)"><g><path d="M 2.5 -4.71875 C 3.1875 -4.71875 3.710938 -4.550781 4.078125 -4.21875 C 4.441406 -3.894531 4.625 -3.398438 4.625 -2.734375 L 4.625 0 L 3.59375 0 L 3.59375 -0.5625 C 3.457031 -0.363281 3.265625 -0.207031 3.015625 -0.09375 C 2.765625 0.0078125 2.46875 0.0625 2.125 0.0625 C 1.769531 0.0625 1.460938 0.00390625 1.203125 -0.109375 C 0.941406 -0.234375 0.738281 -0.398438 0.59375 -0.609375 C 0.457031 -0.828125 0.390625 -1.070312 0.390625 -1.34375 C 0.390625 -1.757812 0.539062 -2.09375 0.84375 -2.34375 C 1.15625 -2.59375 1.648438 -2.71875 2.328125 -2.71875 L 3.53125 -2.71875 L 3.53125 -2.796875 C 3.53125 -3.117188 3.429688 -3.367188 3.234375 -3.546875 C 3.035156 -3.722656 2.742188 -3.8125 2.359375 -3.8125 C 2.097656 -3.8125 1.84375 -3.769531 1.59375 -3.6875 C 1.34375 -3.601562 1.128906 -3.488281 0.953125 -3.34375 L 0.53125 -4.140625 C 0.769531 -4.328125 1.0625 -4.46875 1.40625 -4.5625 C 1.75 -4.664062 2.113281 -4.71875 2.5 -4.71875 Z M 2.34375 -0.734375 C 2.625 -0.734375 2.867188 -0.796875 3.078125 -0.921875 C 3.285156 -1.046875 3.4375 -1.222656 3.53125 -1.453125 L 3.53125 -2 L 2.40625 -2 C 1.769531 -2 1.453125 -1.789062 1.453125 -1.375 C 1.453125 -1.175781 1.53125 -1.019531 1.6875 -0.90625 C 1.851562 -0.789062 2.070312 -0.734375 2.34375 -0.734375 Z M 2.34375 -0.734375 "/></g></g></g><g fill="#000000" fill-opacity="1"><g transform="translate(59.555923, 17.367713)"><g><path d="M 3.359375 -4.71875 C 3.953125 -4.71875 4.425781 -4.546875 4.78125 -4.203125 C 5.132812 -3.859375 5.3125 -3.347656 5.3125 -2.671875 L 5.3125 0 L 4.21875 0 L 4.21875 -2.53125 C 4.21875 -2.9375 4.117188 -3.242188 3.921875 -3.453125 C 3.734375 -3.660156 3.460938 -3.765625 3.109375 -3.765625 C 2.703125 -3.765625 2.382812 -3.644531 2.15625 -3.40625 C 1.925781 -3.164062 1.8125 -2.816406 1.8125 -2.359375 L 1.8125 0 L 0.71875 0 L 0.71875 -6.484375 L 1.8125 -6.484375 L 1.8125 -4.125 C 1.988281 -4.3125 2.207031 -4.457031 2.46875 -4.5625 C 2.738281 -4.664062 3.035156 -4.71875 3.359375 -4.71875 Z M 3.359375 -4.71875 "/></g></g></g><g fill="#000000" fill-opacity="1"><g transform="translate(65.535753, 17.367713)"><g><path d="M 3.515625 -0.25 C 3.390625 -0.144531 3.234375 -0.0664062 3.046875 -0.015625 C 2.867188 0.0351562 2.675781 0.0625 2.46875 0.0625 C 1.957031 0.0625 1.5625 -0.0703125 1.28125 -0.34375 C 1 -0.613281 0.859375 -1.003906 0.859375 -1.515625 L 0.859375 -3.75 L 0.09375 -3.75 L 0.09375 -4.625 L 0.859375 -4.625 L 0.859375 -5.6875 L 1.953125 -5.6875 L 1.953125 -4.625 L 3.203125 -4.625 L 3.203125 -3.75 L 1.953125 -3.75 L 1.953125 -1.53125 C 1.953125 -1.3125 2.003906 -1.140625 2.109375 -1.015625 C 2.222656 -0.898438 2.390625 -0.84375 2.609375 -0.84375 C 2.847656 -0.84375 3.050781 -0.90625 3.21875 -1.03125 Z M 3.515625 -0.25 "/></g></g></g><g fill="#000000" fill-opacity="1"><g transform="translate(69.237135, 17.367713)"><g><path d="M 0.71875 -4.671875 L 1.8125 -4.671875 L 1.8125 0 L 0.71875 0 Z M 1.265625 -5.4375 C 1.066406 -5.4375 0.898438 -5.5 0.765625 -5.625 C 0.640625 -5.75 0.578125 -5.90625 0.578125 -6.09375 C 0.578125 -6.28125 0.640625 -6.4375 0.765625 -6.5625 C 0.898438 -6.6875 1.066406 -6.75 1.265625 -6.75 C 1.460938 -6.75 1.628906 -6.6875 1.765625 -6.5625 C 1.898438 -6.445312 1.96875 -6.296875 1.96875 -6.109375 C 1.96875 -5.921875 1.898438 -5.757812 1.765625 -5.625 C 1.640625 -5.5 1.472656 -5.4375 1.265625 -5.4375 Z M 1.265625 -5.4375 "/></g></g></g><g fill="#000000" fill-opacity="1"><g transform="translate(71.760012, 17.367713)"><g><path d="M 2.859375 0.0625 C 2.367188 0.0625 1.929688 -0.0351562 1.546875 -0.234375 C 1.171875 -0.441406 0.875 -0.726562 0.65625 -1.09375 C 0.4375 -1.457031 0.328125 -1.867188 0.328125 -2.328125 C 0.328125 -2.785156 0.4375 -3.195312 0.65625 -3.5625 C 0.875 -3.925781 1.171875 -4.207031 1.546875 -4.40625 C 1.929688 -4.613281 2.367188 -4.71875 2.859375 -4.71875 C 3.316406 -4.71875 3.71875 -4.625 4.0625 -4.4375 C 4.40625 -4.25 4.664062 -3.984375 4.84375 -3.640625 L 4.015625 -3.140625 C 3.878906 -3.359375 3.707031 -3.519531 3.5 -3.625 C 3.300781 -3.738281 3.082031 -3.796875 2.84375 -3.796875 C 2.4375 -3.796875 2.097656 -3.660156 1.828125 -3.390625 C 1.566406 -3.128906 1.4375 -2.773438 1.4375 -2.328125 C 1.4375 -1.890625 1.566406 -1.535156 1.828125 -1.265625 C 2.097656 -1.003906 2.4375 -0.875 2.84375 -0.875 C 3.082031 -0.875 3.300781 -0.925781 3.5 -1.03125 C 3.707031 -1.144531 3.878906 -1.304688 4.015625 -1.515625 L 4.84375 -1.03125 C 4.664062 -0.675781 4.398438 -0.40625 4.046875 -0.21875 C 3.703125 -0.03125 3.304688 0.0625 2.859375 0.0625 Z M 2.859375 0.0625 "/></g></g></g><g fill="#000000" fill-opacity="1"><g transform="translate(76.831954, 17.367713)"><g><path d="M 2.625 -2 L 1.8125 -1.234375 L 1.8125 0 L 0.71875 0 L 0.71875 -6.484375 L 1.8125 -6.484375 L 1.8125 -2.5625 L 4.0625 -4.671875 L 5.375 -4.671875 L 3.4375 -2.703125 L 5.5625 0 L 4.234375 0 Z M 2.625 -2 "/></g></g></g><g fill="#000000" fill-opacity="1"><g transform="translate(82.384029, 17.367713)"><g><path d="M 5.09375 -2.3125 C 5.09375 -2.226562 5.085938 -2.117188 5.078125 -1.984375 L 1.421875 -1.984375 C 1.484375 -1.640625 1.648438 -1.363281 1.921875 -1.15625 C 2.191406 -0.957031 2.53125 -0.859375 2.9375 -0.859375 C 3.445312 -0.859375 3.867188 -1.03125 4.203125 -1.375 L 4.78125 -0.703125 C 4.570312 -0.453125 4.304688 -0.257812 3.984375 -0.125 C 3.671875 0 3.3125 0.0625 2.90625 0.0625 C 2.394531 0.0625 1.941406 -0.0351562 1.546875 -0.234375 C 1.160156 -0.441406 0.859375 -0.726562 0.640625 -1.09375 C 0.429688 -1.457031 0.328125 -1.867188 0.328125 -2.328125 C 0.328125 -2.785156 0.429688 -3.195312 0.640625 -3.5625 C 0.847656 -3.925781 1.132812 -4.207031 1.5 -4.40625 C 1.863281 -4.613281 2.28125 -4.71875 2.75 -4.71875 C 3.195312 -4.71875 3.597656 -4.613281 3.953125 -4.40625 C 4.316406 -4.207031 4.597656 -3.925781 4.796875 -3.5625 C 4.992188 -3.195312 5.09375 -2.78125 5.09375 -2.3125 Z M 2.75 -3.84375 C 2.394531 -3.84375 2.097656 -3.738281 1.859375 -3.53125 C 1.617188 -3.320312 1.472656 -3.046875 1.421875 -2.703125 L 4.0625 -2.703125 C 4.007812 -3.046875 3.863281 -3.320312 3.625 -3.53125 C 3.394531 -3.738281 3.101562 -3.84375 2.75 -3.84375 Z M 2.75 -3.84375 "/></g></g></g><g fill="#000000" fill-opacity="1"><g transform="translate(87.813887, 17.367713)"><g><path d="M 3.515625 -0.25 C 3.390625 -0.144531 3.234375 -0.0664062 3.046875 -0.015625 C 2.867188 0.0351562 2.675781 0.0625 2.46875 0.0625 C 1.957031 0.0625 1.5625 -0.0703125 1.28125 -0.34375 C 1 -0.613281 0.859375 -1.003906 0.859375 -1.515625 L 0.859375 -3.75 L 0.09375 -3.75 L 0.09375 -4.625 L 0.859375 -4.625 L 0.859375 -5.6875 L 1.953125 -5.6875 L 1.953125 -4.625 L 3.203125 -4.625 L 3.203125 -3.75 L 1.953125 -3.75 L 1.953125 -1.53125 C 1.953125 -1.3125 2.003906 -1.140625 2.109375 -1.015625 C 2.222656 -0.898438 2.390625 -0.84375 2.609375 -0.84375 C 2.847656 -0.84375 3.050781 -0.90625 3.21875 -1.03125 Z M 3.515625 -0.25 "/></g></g></g><g fill="#000000" fill-opacity="1"><g transform="translate(91.51527, 17.367713)"><g><path d="M 1.9375 -2.03125 C 1.9375 -2.34375 2.003906 -2.601562 2.140625 -2.8125 C 2.285156 -3.019531 2.5 -3.242188 2.78125 -3.484375 C 2.988281 -3.671875 3.140625 -3.832031 3.234375 -3.96875 C 3.335938 -4.101562 3.390625 -4.257812 3.390625 -4.4375 C 3.390625 -4.675781 3.289062 -4.875 3.09375 -5.03125 C 2.894531 -5.1875 2.632812 -5.265625 2.3125 -5.265625 C 1.675781 -5.265625 1.195312 -5.035156 0.875 -4.578125 L 0.03125 -5.140625 C 0.28125 -5.484375 0.601562 -5.742188 1 -5.921875 C 1.394531 -6.109375 1.863281 -6.203125 2.40625 -6.203125 C 3.050781 -6.203125 3.566406 -6.0625 3.953125 -5.78125 C 4.347656 -5.5 4.546875 -5.109375 4.546875 -4.609375 C 4.546875 -4.367188 4.503906 -4.160156 4.421875 -3.984375 C 4.347656 -3.804688 4.253906 -3.65625 4.140625 -3.53125 C 4.023438 -3.40625 3.878906 -3.257812 3.703125 -3.09375 C 3.484375 -2.894531 3.316406 -2.71875 3.203125 -2.5625 C 3.097656 -2.414062 3.046875 -2.238281 3.046875 -2.03125 Z M 2.5 0.0625 C 2.289062 0.0625 2.117188 0 1.984375 -0.125 C 1.859375 -0.257812 1.796875 -0.425781 1.796875 -0.625 C 1.796875 -0.8125 1.859375 -0.96875 1.984375 -1.09375 C 2.117188 -1.226562 2.289062 -1.296875 2.5 -1.296875 C 2.695312 -1.296875 2.859375 -1.226562 2.984375 -1.09375 C 3.117188 -0.96875 3.1875 -0.8125 3.1875 -0.625 C 3.1875 -0.425781 3.117188 -0.257812 2.984375 -0.125 C 2.859375 0 2.695312 0.0625 2.5 0.0625 Z M 2.5 0.0625 "/></g></g></g><g fill="#000000" fill-opacity="1"><g transform="translate(96.587211, 17.367713)"><g><path d="M 0.578125 -6.109375 L 1.875 -6.109375 L 1.65625 -2.03125 L 0.78125 -2.03125 Z M 1.21875 0.0625 C 1.019531 0.0625 0.851562 0 0.71875 -0.125 C 0.582031 -0.257812 0.515625 -0.425781 0.515625 -0.625 C 0.515625 -0.8125 0.582031 -0.96875 0.71875 -1.09375 C 0.851562 -1.226562 1.019531 -1.296875 1.21875 -1.296875 C 1.414062 -1.296875 1.578125 -1.226562 1.703125 -1.09375 C 1.835938 -0.96875 1.90625 -0.8125 1.90625 -0.625 C 1.90625 -0.425781 1.835938 -0.257812 1.703125 -0.125 C 1.578125 0 1.414062 0.0625 1.21875 0.0625 Z M 1.21875 0.0625 "/></g></g></g></svg>