<svg xmlns="http://www.w3.org/2000/svg" xmlns:xlink="http://www.w3.org/1999/xlink" width="178" zoomAndPan="magnify" viewBox="0 0 133.5 30.000001" height="40" preserveAspectRatio="xMidYMid meet" version="1.0"><defs><g/><clipPath id="3f1d704b56"><path d="M 25 4 L 53.449219 4 L 53.449219 28.9375 L 25 28.9375 Z M 25 4 " clip-rule="nonzero"/></clipPath><clipPath id="e72bf8cf13"><path d="M 23.03125 18 L 29 18 L 29 25 L 23.03125 25 Z M 23.03125 18 " clip-rule="nonzero"/></clipPath></defs><g clip-path="url(#3f1d704b56)"><path fill="#696cff" d="M 51.589844 11.710938 C 51.386719 11.402344 50.96875 11.316406 50.664062 11.519531 C 50.367188 11.714844 50.023438 11.816406 49.671875 11.816406 C 49.0625 11.816406 48.496094 11.511719 48.160156 11.003906 C 47.613281 10.171875 47.84375 9.050781 48.675781 8.503906 C 48.984375 8.300781 49.070312 7.886719 48.867188 7.578125 L 47.425781 5.386719 C 47.007812 4.753906 46.300781 4.371094 45.539062 4.371094 C 45.097656 4.371094 44.671875 4.5 44.300781 4.746094 L 26.640625 16.371094 C 26.140625 16.703125 25.792969 17.210938 25.671875 17.800781 C 25.550781 18.390625 25.667969 18.992188 26 19.496094 L 27.441406 21.683594 C 27.539062 21.832031 27.691406 21.9375 27.863281 21.972656 C 28.035156 22.007812 28.21875 21.972656 28.367188 21.875 C 28.660156 21.679688 29.003906 21.578125 29.355469 21.578125 C 29.964844 21.578125 30.53125 21.882812 30.867188 22.390625 C 31.414062 23.222656 31.183594 24.34375 30.351562 24.890625 C 30.203125 24.988281 30.101562 25.140625 30.0625 25.316406 C 30.027344 25.488281 30.0625 25.667969 30.160156 25.816406 L 31.601562 28.007812 C 32.019531 28.644531 32.726562 29.023438 33.488281 29.023438 C 33.929688 29.023438 34.355469 28.894531 34.726562 28.652344 L 52.386719 17.023438 C 52.890625 16.695312 53.234375 16.1875 53.355469 15.597656 C 53.476562 15.003906 53.359375 14.402344 53.027344 13.898438 Z M 51.652344 15.910156 L 48.257812 18.144531 L 48.074219 17.863281 C 47.921875 17.632812 47.609375 17.570312 47.378906 17.722656 C 47.148438 17.875 47.082031 18.183594 47.234375 18.417969 L 47.417969 18.695312 L 33.992188 27.535156 C 33.839844 27.632812 33.667969 27.6875 33.488281 27.6875 C 33.175781 27.6875 32.890625 27.53125 32.71875 27.273438 L 31.605469 25.582031 C 32.617188 24.546875 32.808594 22.910156 31.984375 21.65625 C 31.398438 20.769531 30.417969 20.242188 29.355469 20.242188 C 28.96875 20.242188 28.585938 20.3125 28.226562 20.453125 L 27.113281 18.761719 C 26.980469 18.554688 26.933594 18.308594 26.980469 18.070312 C 27.03125 17.828125 27.171875 17.621094 27.375 17.484375 L 40.804688 8.648438 L 40.988281 8.925781 C 41.082031 9.070312 41.242188 9.152344 41.40625 9.152344 C 41.5 9.152344 41.597656 9.125 41.679688 9.070312 C 41.914062 8.917969 41.976562 8.605469 41.824219 8.375 L 41.640625 8.09375 L 45.035156 5.859375 C 45.449219 5.589844 46.039062 5.714844 46.308594 6.121094 L 47.421875 7.8125 C 46.414062 8.847656 46.21875 10.484375 47.046875 11.738281 C 47.628906 12.625 48.609375 13.152344 49.671875 13.152344 C 50.058594 13.152344 50.441406 13.082031 50.800781 12.941406 L 51.914062 14.632812 C 52.191406 15.058594 52.074219 15.628906 51.652344 15.910156 Z M 51.652344 15.910156 " fill-opacity="1" fill-rule="nonzero"/></g><path fill="#696cff" d="M 45.574219 14.070312 C 45.421875 13.835938 45.109375 13.773438 44.878906 13.925781 C 44.648438 14.078125 44.585938 14.386719 44.734375 14.621094 L 45.984375 16.519531 C 46.082031 16.664062 46.242188 16.742188 46.40625 16.742188 C 46.5 16.742188 46.59375 16.714844 46.679688 16.660156 C 46.910156 16.507812 46.976562 16.199219 46.824219 15.964844 Z M 45.574219 14.070312 " fill-opacity="1" fill-rule="nonzero"/><path fill="#696cff" d="M 43.074219 10.273438 C 42.921875 10.042969 42.613281 9.976562 42.378906 10.128906 C 42.148438 10.28125 42.085938 10.59375 42.238281 10.824219 L 43.488281 12.722656 C 43.582031 12.867188 43.742188 12.945312 43.90625 12.945312 C 44 12.945312 44.097656 12.921875 44.179688 12.863281 C 44.410156 12.710938 44.476562 12.402344 44.324219 12.171875 Z M 43.074219 10.273438 " fill-opacity="1" fill-rule="nonzero"/><path fill="#696cff" d="M 38.59375 4.519531 C 38.59375 4.523438 38.597656 4.53125 38.597656 4.539062 C 38.601562 4.5625 38.605469 4.585938 38.609375 4.609375 C 38.613281 4.617188 38.617188 4.625 38.617188 4.632812 C 38.621094 4.640625 38.621094 4.648438 38.625 4.65625 C 38.941406 5.59375 39.570312 6.253906 40.398438 6.515625 C 40.464844 6.535156 40.53125 6.546875 40.597656 6.546875 C 40.882812 6.546875 41.148438 6.363281 41.238281 6.078125 C 41.347656 5.726562 41.152344 5.351562 40.800781 5.242188 C 40.398438 5.113281 40.078125 4.765625 39.902344 4.253906 C 39.785156 3.789062 39.855469 3.308594 40.101562 2.898438 C 40.191406 2.746094 40.21875 2.5625 40.171875 2.390625 C 40.128906 2.21875 40.019531 2.070312 39.867188 1.980469 L 37.605469 0.632812 C 36.542969 0 35.160156 0.347656 34.523438 1.402344 C 32.644531 4.5 29.152344 10.28125 26.835938 14.175781 C 26.644531 14.492188 26.75 14.902344 27.066406 15.089844 C 27.175781 15.152344 27.292969 15.183594 27.40625 15.183594 C 27.636719 15.183594 27.859375 15.066406 27.984375 14.859375 C 29.433594 12.417969 31.351562 9.234375 33.039062 6.4375 L 33.269531 6.574219 C 33.347656 6.621094 33.4375 6.644531 33.523438 6.644531 C 33.695312 6.644531 33.863281 6.558594 33.957031 6.398438 C 34.097656 6.164062 34.019531 5.855469 33.78125 5.714844 L 33.558594 5.578125 C 34.359375 4.253906 35.089844 3.046875 35.664062 2.09375 C 35.925781 1.664062 36.488281 1.523438 36.921875 1.78125 L 38.671875 2.824219 C 38.488281 3.367188 38.464844 3.949219 38.59375 4.519531 Z M 38.59375 4.519531 " fill-opacity="1" fill-rule="nonzero"/><g clip-path="url(#e72bf8cf13)"><path fill="#696cff" d="M 25.0625 19.796875 C 25.25 19.480469 25.144531 19.070312 24.828125 18.882812 C 24.511719 18.695312 24.101562 18.796875 23.914062 19.113281 C 23.824219 19.265625 23.726562 19.429688 23.636719 19.59375 C 23.03125 20.65625 23.394531 22.027344 24.441406 22.652344 L 26.742188 24.023438 C 26.847656 24.085938 26.964844 24.117188 27.085938 24.117188 C 27.140625 24.117188 27.195312 24.109375 27.25 24.097656 C 27.421875 24.054688 27.566406 23.941406 27.660156 23.789062 C 27.738281 23.660156 27.832031 23.539062 27.941406 23.429688 C 28.203125 23.171875 28.203125 22.746094 27.945312 22.484375 C 27.683594 22.222656 27.261719 22.222656 27 22.480469 C 26.972656 22.511719 26.941406 22.539062 26.914062 22.570312 L 25.125 21.503906 C 24.6875 21.246094 24.546875 20.695312 24.796875 20.253906 C 24.886719 20.097656 24.976562 19.941406 25.0625 19.796875 Z M 25.0625 19.796875 " fill-opacity="1" fill-rule="nonzero"/></g><path fill="#696cff" d="M 35.210938 6.5625 L 34.6875 7.417969 C 34.6875 7.417969 35.875 8.148438 36.101562 8.28125 C 36.179688 8.328125 36.269531 8.351562 36.355469 8.351562 C 36.527344 8.351562 36.691406 8.265625 36.785156 8.105469 C 36.929688 7.867188 36.851562 7.5625 36.613281 7.417969 C 36.390625 7.289062 35.210938 6.5625 35.210938 6.5625 Z M 35.210938 6.5625 " fill-opacity="1" fill-rule="nonzero"/><path fill="#696cff" d="M 41.394531 16.621094 L 41.511719 15.210938 C 41.539062 14.894531 41.4375 14.589844 41.21875 14.355469 C 40.933594 14.042969 40.480469 13.917969 40.074219 14.035156 L 38.71875 14.433594 L 37.414062 13.886719 C 37.277344 13.828125 37.128906 13.796875 36.980469 13.796875 C 36.363281 13.796875 35.871094 14.277344 35.851562 14.894531 L 35.8125 16.304688 L 34.890625 17.371094 C 34.644531 17.65625 34.558594 18.035156 34.652344 18.398438 C 34.746094 18.757812 35.011719 19.046875 35.363281 19.171875 L 36.691406 19.644531 L 37.425781 20.855469 C 37.628906 21.195312 37.992188 21.398438 38.386719 21.398438 C 38.738281 21.398438 39.066406 21.238281 39.28125 20.957031 L 40.144531 19.839844 L 41.519531 19.519531 C 41.878906 19.433594 42.175781 19.175781 42.3125 18.828125 C 42.445312 18.484375 42.402344 18.09375 42.191406 17.785156 Z M 41.378906 18.464844 C 41.367188 18.496094 41.34375 18.53125 41.289062 18.542969 L 39.742188 18.90625 C 39.628906 18.933594 39.527344 18.996094 39.457031 19.085938 L 38.488281 20.347656 C 38.457031 20.386719 38.417969 20.394531 38.386719 20.394531 C 38.363281 20.394531 38.3125 20.386719 38.28125 20.335938 L 37.457031 18.972656 C 37.398438 18.875 37.304688 18.800781 37.199219 18.761719 L 35.699219 18.226562 C 35.648438 18.210938 35.628906 18.171875 35.621094 18.140625 C 35.613281 18.113281 35.613281 18.070312 35.648438 18.027344 L 36.6875 16.824219 C 36.761719 16.738281 36.804688 16.625 36.808594 16.511719 L 36.855469 14.921875 C 36.855469 14.839844 36.929688 14.800781 36.980469 14.800781 C 36.996094 14.800781 37.011719 14.804688 37.027344 14.808594 L 38.492188 15.425781 C 38.601562 15.472656 38.71875 15.476562 38.828125 15.445312 L 40.355469 14.996094 C 40.402344 14.984375 40.449219 15 40.484375 15.035156 C 40.507812 15.058594 40.519531 15.089844 40.515625 15.128906 L 40.382812 16.710938 C 40.371094 16.828125 40.402344 16.941406 40.464844 17.039062 L 41.363281 18.351562 C 41.394531 18.394531 41.386719 18.4375 41.378906 18.464844 Z M 41.378906 18.464844 " fill-opacity="1" fill-rule="nonzero"/><g fill="#000000" fill-opacity="1"><g transform="translate(58.777181, 17.367713)"><g><path d="M 3.359375 -4.71875 C 3.953125 -4.71875 4.425781 -4.546875 4.78125 -4.203125 C 5.132812 -3.859375 5.3125 -3.347656 5.3125 -2.671875 L 5.3125 0 L 4.21875 0 L 4.21875 -2.53125 C 4.21875 -2.9375 4.117188 -3.242188 3.921875 -3.453125 C 3.734375 -3.660156 3.460938 -3.765625 3.109375 -3.765625 C 2.703125 -3.765625 2.382812 -3.644531 2.15625 -3.40625 C 1.925781 -3.164062 1.8125 -2.816406 1.8125 -2.359375 L 1.8125 0 L 0.71875 0 L 0.71875 -6.484375 L 1.8125 -6.484375 L 1.8125 -4.125 C 1.988281 -4.3125 2.207031 -4.457031 2.46875 -4.5625 C 2.738281 -4.664062 3.035156 -4.71875 3.359375 -4.71875 Z M 3.359375 -4.71875 "/></g></g></g><g fill="#000000" fill-opacity="1"><g transform="translate(64.757011, 17.367713)"><g><path d="M 2.5 -4.71875 C 3.1875 -4.71875 3.710938 -4.550781 4.078125 -4.21875 C 4.441406 -3.894531 4.625 -3.398438 4.625 -2.734375 L 4.625 0 L 3.59375 0 L 3.59375 -0.5625 C 3.457031 -0.363281 3.265625 -0.207031 3.015625 -0.09375 C 2.765625 0.0078125 2.46875 0.0625 2.125 0.0625 C 1.769531 0.0625 1.460938 0.00390625 1.203125 -0.109375 C 0.941406 -0.234375 0.738281 -0.398438 0.59375 -0.609375 C 0.457031 -0.828125 0.390625 -1.070312 0.390625 -1.34375 C 0.390625 -1.757812 0.539062 -2.09375 0.84375 -2.34375 C 1.15625 -2.59375 1.648438 -2.71875 2.328125 -2.71875 L 3.53125 -2.71875 L 3.53125 -2.796875 C 3.53125 -3.117188 3.429688 -3.367188 3.234375 -3.546875 C 3.035156 -3.722656 2.742188 -3.8125 2.359375 -3.8125 C 2.097656 -3.8125 1.84375 -3.769531 1.59375 -3.6875 C 1.34375 -3.601562 1.128906 -3.488281 0.953125 -3.34375 L 0.53125 -4.140625 C 0.769531 -4.328125 1.0625 -4.46875 1.40625 -4.5625 C 1.75 -4.664062 2.113281 -4.71875 2.5 -4.71875 Z M 2.34375 -0.734375 C 2.625 -0.734375 2.867188 -0.796875 3.078125 -0.921875 C 3.285156 -1.046875 3.4375 -1.222656 3.53125 -1.453125 L 3.53125 -2 L 2.40625 -2 C 1.769531 -2 1.453125 -1.789062 1.453125 -1.375 C 1.453125 -1.175781 1.53125 -1.019531 1.6875 -0.90625 C 1.851562 -0.789062 2.070312 -0.734375 2.34375 -0.734375 Z M 2.34375 -0.734375 "/></g></g></g><g fill="#000000" fill-opacity="1"><g transform="translate(70.055925, 17.367713)"><g><path d="M 3.359375 -4.71875 C 3.953125 -4.71875 4.425781 -4.546875 4.78125 -4.203125 C 5.132812 -3.859375 5.3125 -3.347656 5.3125 -2.671875 L 5.3125 0 L 4.21875 0 L 4.21875 -2.53125 C 4.21875 -2.9375 4.117188 -3.242188 3.921875 -3.453125 C 3.734375 -3.660156 3.460938 -3.765625 3.109375 -3.765625 C 2.703125 -3.765625 2.382812 -3.644531 2.15625 -3.40625 C 1.925781 -3.164062 1.8125 -2.816406 1.8125 -2.359375 L 1.8125 0 L 0.71875 0 L 0.71875 -6.484375 L 1.8125 -6.484375 L 1.8125 -4.125 C 1.988281 -4.3125 2.207031 -4.457031 2.46875 -4.5625 C 2.738281 -4.664062 3.035156 -4.71875 3.359375 -4.71875 Z M 3.359375 -4.71875 "/></g></g></g><g fill="#000000" fill-opacity="1"><g transform="translate(76.035755, 17.367713)"><g><path d="M 3.515625 -0.25 C 3.390625 -0.144531 3.234375 -0.0664062 3.046875 -0.015625 C 2.867188 0.0351562 2.675781 0.0625 2.46875 0.0625 C 1.957031 0.0625 1.5625 -0.0703125 1.28125 -0.34375 C 1 -0.613281 0.859375 -1.003906 0.859375 -1.515625 L 0.859375 -3.75 L 0.09375 -3.75 L 0.09375 -4.625 L 0.859375 -4.625 L 0.859375 -5.6875 L 1.953125 -5.6875 L 1.953125 -4.625 L 3.203125 -4.625 L 3.203125 -3.75 L 1.953125 -3.75 L 1.953125 -1.53125 C 1.953125 -1.3125 2.003906 -1.140625 2.109375 -1.015625 C 2.222656 -0.898438 2.390625 -0.84375 2.609375 -0.84375 C 2.847656 -0.84375 3.050781 -0.90625 3.21875 -1.03125 Z M 3.515625 -0.25 "/></g></g></g><g fill="#000000" fill-opacity="1"><g transform="translate(79.737137, 17.367713)"><g><path d="M 0.71875 -4.671875 L 1.8125 -4.671875 L 1.8125 0 L 0.71875 0 Z M 1.265625 -5.4375 C 1.066406 -5.4375 0.898438 -5.5 0.765625 -5.625 C 0.640625 -5.75 0.578125 -5.90625 0.578125 -6.09375 C 0.578125 -6.28125 0.640625 -6.4375 0.765625 -6.5625 C 0.898438 -6.6875 1.066406 -6.75 1.265625 -6.75 C 1.460938 -6.75 1.628906 -6.6875 1.765625 -6.5625 C 1.898438 -6.445312 1.96875 -6.296875 1.96875 -6.109375 C 1.96875 -5.921875 1.898438 -5.757812 1.765625 -5.625 C 1.640625 -5.5 1.472656 -5.4375 1.265625 -5.4375 Z M 1.265625 -5.4375 "/></g></g></g><g fill="#000000" fill-opacity="1"><g transform="translate(82.260014, 17.367713)"><g><path d="M 2.859375 0.0625 C 2.367188 0.0625 1.929688 -0.0351562 1.546875 -0.234375 C 1.171875 -0.441406 0.875 -0.726562 0.65625 -1.09375 C 0.4375 -1.457031 0.328125 -1.867188 0.328125 -2.328125 C 0.328125 -2.785156 0.4375 -3.195312 0.65625 -3.5625 C 0.875 -3.925781 1.171875 -4.207031 1.546875 -4.40625 C 1.929688 -4.613281 2.367188 -4.71875 2.859375 -4.71875 C 3.316406 -4.71875 3.71875 -4.625 4.0625 -4.4375 C 4.40625 -4.25 4.664062 -3.984375 4.84375 -3.640625 L 4.015625 -3.140625 C 3.878906 -3.359375 3.707031 -3.519531 3.5 -3.625 C 3.300781 -3.738281 3.082031 -3.796875 2.84375 -3.796875 C 2.4375 -3.796875 2.097656 -3.660156 1.828125 -3.390625 C 1.566406 -3.128906 1.4375 -2.773438 1.4375 -2.328125 C 1.4375 -1.890625 1.566406 -1.535156 1.828125 -1.265625 C 2.097656 -1.003906 2.4375 -0.875 2.84375 -0.875 C 3.082031 -0.875 3.300781 -0.925781 3.5 -1.03125 C 3.707031 -1.144531 3.878906 -1.304688 4.015625 -1.515625 L 4.84375 -1.03125 C 4.664062 -0.675781 4.398438 -0.40625 4.046875 -0.21875 C 3.703125 -0.03125 3.304688 0.0625 2.859375 0.0625 Z M 2.859375 0.0625 "/></g></g></g><g fill="#000000" fill-opacity="1"><g transform="translate(87.331956, 17.367713)"><g><path d="M 2.625 -2 L 1.8125 -1.234375 L 1.8125 0 L 0.71875 0 L 0.71875 -6.484375 L 1.8125 -6.484375 L 1.8125 -2.5625 L 4.0625 -4.671875 L 5.375 -4.671875 L 3.4375 -2.703125 L 5.5625 0 L 4.234375 0 Z M 2.625 -2 "/></g></g></g><g fill="#000000" fill-opacity="1"><g transform="translate(92.884031, 17.367713)"><g><path d="M 5.09375 -2.3125 C 5.09375 -2.226562 5.085938 -2.117188 5.078125 -1.984375 L 1.421875 -1.984375 C 1.484375 -1.640625 1.648438 -1.363281 1.921875 -1.15625 C 2.191406 -0.957031 2.53125 -0.859375 2.9375 -0.859375 C 3.445312 -0.859375 3.867188 -1.03125 4.203125 -1.375 L 4.78125 -0.703125 C 4.570312 -0.453125 4.304688 -0.257812 3.984375 -0.125 C 3.671875 0 3.3125 0.0625 2.90625 0.0625 C 2.394531 0.0625 1.941406 -0.0351562 1.546875 -0.234375 C 1.160156 -0.441406 0.859375 -0.726562 0.640625 -1.09375 C 0.429688 -1.457031 0.328125 -1.867188 0.328125 -2.328125 C 0.328125 -2.785156 0.429688 -3.195312 0.640625 -3.5625 C 0.847656 -3.925781 1.132812 -4.207031 1.5 -4.40625 C 1.863281 -4.613281 2.28125 -4.71875 2.75 -4.71875 C 3.195312 -4.71875 3.597656 -4.613281 3.953125 -4.40625 C 4.316406 -4.207031 4.597656 -3.925781 4.796875 -3.5625 C 4.992188 -3.195312 5.09375 -2.78125 5.09375 -2.3125 Z M 2.75 -3.84375 C 2.394531 -3.84375 2.097656 -3.738281 1.859375 -3.53125 C 1.617188 -3.320312 1.472656 -3.046875 1.421875 -2.703125 L 4.0625 -2.703125 C 4.007812 -3.046875 3.863281 -3.320312 3.625 -3.53125 C 3.394531 -3.738281 3.101562 -3.84375 2.75 -3.84375 Z M 2.75 -3.84375 "/></g></g></g><g fill="#000000" fill-opacity="1"><g transform="translate(98.313889, 17.367713)"><g><path d="M 3.515625 -0.25 C 3.390625 -0.144531 3.234375 -0.0664062 3.046875 -0.015625 C 2.867188 0.0351562 2.675781 0.0625 2.46875 0.0625 C 1.957031 0.0625 1.5625 -0.0703125 1.28125 -0.34375 C 1 -0.613281 0.859375 -1.003906 0.859375 -1.515625 L 0.859375 -3.75 L 0.09375 -3.75 L 0.09375 -4.625 L 0.859375 -4.625 L 0.859375 -5.6875 L 1.953125 -5.6875 L 1.953125 -4.625 L 3.203125 -4.625 L 3.203125 -3.75 L 1.953125 -3.75 L 1.953125 -1.53125 C 1.953125 -1.3125 2.003906 -1.140625 2.109375 -1.015625 C 2.222656 -0.898438 2.390625 -0.84375 2.609375 -0.84375 C 2.847656 -0.84375 3.050781 -0.90625 3.21875 -1.03125 Z M 3.515625 -0.25 "/></g></g></g><g fill="#000000" fill-opacity="1"><g transform="translate(102.015272, 17.367713)"><g><path d="M 1.9375 -2.03125 C 1.9375 -2.34375 2.003906 -2.601562 2.140625 -2.8125 C 2.285156 -3.019531 2.5 -3.242188 2.78125 -3.484375 C 2.988281 -3.671875 3.140625 -3.832031 3.234375 -3.96875 C 3.335938 -4.101562 3.390625 -4.257812 3.390625 -4.4375 C 3.390625 -4.675781 3.289062 -4.875 3.09375 -5.03125 C 2.894531 -5.1875 2.632812 -5.265625 2.3125 -5.265625 C 1.675781 -5.265625 1.195312 -5.035156 0.875 -4.578125 L 0.03125 -5.140625 C 0.28125 -5.484375 0.601562 -5.742188 1 -5.921875 C 1.394531 -6.109375 1.863281 -6.203125 2.40625 -6.203125 C 3.050781 -6.203125 3.566406 -6.0625 3.953125 -5.78125 C 4.347656 -5.5 4.546875 -5.109375 4.546875 -4.609375 C 4.546875 -4.367188 4.503906 -4.160156 4.421875 -3.984375 C 4.347656 -3.804688 4.253906 -3.65625 4.140625 -3.53125 C 4.023438 -3.40625 3.878906 -3.257812 3.703125 -3.09375 C 3.484375 -2.894531 3.316406 -2.71875 3.203125 -2.5625 C 3.097656 -2.414062 3.046875 -2.238281 3.046875 -2.03125 Z M 2.5 0.0625 C 2.289062 0.0625 2.117188 0 1.984375 -0.125 C 1.859375 -0.257812 1.796875 -0.425781 1.796875 -0.625 C 1.796875 -0.8125 1.859375 -0.96875 1.984375 -1.09375 C 2.117188 -1.226562 2.289062 -1.296875 2.5 -1.296875 C 2.695312 -1.296875 2.859375 -1.226562 2.984375 -1.09375 C 3.117188 -0.96875 3.1875 -0.8125 3.1875 -0.625 C 3.1875 -0.425781 3.117188 -0.257812 2.984375 -0.125 C 2.859375 0 2.695312 0.0625 2.5 0.0625 Z M 2.5 0.0625 "/></g></g></g><g fill="#000000" fill-opacity="1"><g transform="translate(107.087213, 17.367713)"><g><path d="M 0.578125 -6.109375 L 1.875 -6.109375 L 1.65625 -2.03125 L 0.78125 -2.03125 Z M 1.21875 0.0625 C 1.019531 0.0625 0.851562 0 0.71875 -0.125 C 0.582031 -0.257812 0.515625 -0.425781 0.515625 -0.625 C 0.515625 -0.8125 0.582031 -0.96875 0.71875 -1.09375 C 0.851562 -1.226562 1.019531 -1.296875 1.21875 -1.296875 C 1.414062 -1.296875 1.578125 -1.226562 1.703125 -1.09375 C 1.835938 -0.96875 1.90625 -0.8125 1.90625 -0.625 C 1.90625 -0.425781 1.835938 -0.257812 1.703125 -0.125 C 1.578125 0 1.414062 0.0625 1.21875 0.0625 Z M 1.21875 0.0625 "/></g></g></g></svg>