<svg xmlns="http://www.w3.org/2000/svg" xmlns:xlink="http://www.w3.org/1999/xlink" width="1920" zoomAndPan="magnify" viewBox="0 0 1440 809.999993" height="1080" preserveAspectRatio="xMidYMid meet" version="1.0"><defs><g/><clipPath id="ecf6037aa6"><path d="M 42 237 L 503 237 L 503 643.84375 L 42 643.84375 Z M 42 237 " clip-rule="nonzero"/></clipPath></defs><g clip-path="url(#ecf6037aa6)"><path fill="#696cff" d="M 472.910156 358.535156 C 469.550781 353.425781 462.6875 352.007812 457.585938 355.378906 C 452.6875 358.601562 447.011719 360.308594 441.179688 360.308594 C 431.066406 360.308594 421.714844 355.273438 416.160156 346.84375 C 407.097656 333.070312 410.925781 314.488281 424.699219 305.417969 C 429.800781 302.058594 431.210938 295.195312 427.851562 290.097656 L 403.980469 253.835938 C 397.046875 243.304688 385.371094 237.015625 372.75 237.015625 C 365.445312 237.015625 358.347656 239.144531 352.230469 243.171875 L 59.785156 435.703125 C 51.453125 441.195312 45.753906 449.597656 43.738281 459.371094 C 41.722656 469.148438 43.636719 479.121094 49.125 487.457031 L 72.996094 523.71875 C 74.609375 526.167969 77.132812 527.878906 80.007812 528.472656 C 82.871094 529.046875 85.867188 528.488281 88.324219 526.875 C 93.222656 523.648438 98.894531 521.941406 104.730469 521.941406 C 114.839844 521.941406 124.191406 526.976562 129.746094 535.40625 C 138.8125 549.183594 134.980469 567.761719 121.210938 576.832031 C 118.757812 578.445312 117.050781 580.964844 116.457031 583.835938 C 115.863281 586.710938 116.4375 589.703125 118.050781 592.152344 L 141.921875 628.417969 C 148.859375 638.949219 160.53125 645.238281 173.152344 645.238281 L 173.15625 645.238281 C 180.460938 645.238281 187.554688 643.109375 193.675781 639.078125 L 486.113281 446.550781 C 494.453125 441.066406 500.152344 432.660156 502.167969 422.882812 C 504.179688 413.109375 502.265625 403.132812 496.777344 394.796875 Z M 473.953125 428.066406 L 417.734375 465.082031 L 414.691406 460.460938 C 412.164062 456.632812 407.019531 455.574219 403.195312 458.09375 C 399.367188 460.613281 398.308594 465.761719 400.828125 469.589844 L 403.871094 474.207031 L 181.515625 620.597656 C 179.015625 622.242188 176.128906 623.109375 173.160156 623.109375 C 168.003906 623.109375 163.234375 620.546875 160.40625 616.25 L 141.96875 588.242188 C 158.714844 571.128906 161.917969 544.039062 148.230469 523.242188 C 138.570312 508.574219 122.308594 499.816406 104.730469 499.816406 C 98.296875 499.816406 91.976562 501.003906 86.042969 503.300781 L 67.605469 475.289062 C 65.371094 471.890625 64.589844 467.824219 65.410156 463.839844 C 66.234375 459.855469 68.554688 456.425781 71.953125 454.1875 L 294.3125 307.796875 L 297.355469 312.417969 C 298.953125 314.839844 301.597656 316.152344 304.292969 316.152344 C 305.859375 316.152344 307.445312 315.710938 308.847656 314.785156 C 312.675781 312.265625 313.738281 307.121094 311.21875 303.292969 L 308.175781 298.671875 L 364.394531 261.652344 C 371.242188 257.148438 381.046875 259.234375 385.5 266.003906 L 403.9375 294.011719 C 387.195312 311.125 383.992188 338.21875 397.679688 359.011719 C 407.339844 373.679688 423.601562 382.4375 441.179688 382.433594 C 447.613281 382.433594 453.933594 381.246094 459.863281 378.953125 L 478.300781 406.957031 C 482.921875 413.976562 480.972656 423.445312 473.953125 428.066406 Z M 473.953125 428.066406 " fill-opacity="1" fill-rule="nonzero"/></g><path fill="#696cff" d="M 373.300781 397.589844 C 370.785156 393.761719 365.640625 392.707031 361.808594 395.21875 C 357.980469 397.742188 356.917969 402.886719 359.4375 406.710938 L 380.128906 438.148438 C 381.722656 440.570312 384.371094 441.882812 387.070312 441.882812 C 388.632812 441.882812 390.21875 441.441406 391.625 440.515625 C 395.453125 437.996094 396.511719 432.847656 393.992188 429.023438 Z M 373.300781 397.589844 " fill-opacity="1" fill-rule="nonzero"/><path fill="#696cff" d="M 331.914062 334.722656 C 329.398438 330.898438 324.253906 329.839844 320.421875 332.351562 C 316.59375 334.875 315.53125 340.019531 318.050781 343.847656 L 338.742188 375.28125 C 340.335938 377.703125 342.984375 379.015625 345.683594 379.015625 C 347.246094 379.015625 348.832031 378.574219 350.234375 377.648438 C 354.0625 375.128906 355.125 369.984375 352.605469 366.15625 Z M 331.914062 334.722656 " fill-opacity="1" fill-rule="nonzero"/><path fill="#696cff" d="M 257.710938 239.425781 C 257.722656 239.53125 257.753906 239.636719 257.769531 239.746094 C 257.859375 240.132812 257.882812 240.53125 257.984375 240.917969 C 258.019531 241.050781 258.082031 241.164062 258.121094 241.292969 C 258.160156 241.421875 258.167969 241.550781 258.210938 241.679688 C 263.460938 257.234375 273.898438 268.183594 287.597656 272.507812 C 288.707031 272.859375 289.832031 273.023438 290.933594 273.023438 C 295.632812 273.023438 299.992188 270.007812 301.480469 265.289062 C 303.320312 259.457031 300.085938 253.246094 294.257812 251.40625 C 287.589844 249.300781 282.320312 243.5 279.355469 235.074219 C 277.441406 227.375 278.59375 219.394531 282.65625 212.574219 C 284.15625 210.050781 284.59375 207.035156 283.871094 204.191406 C 283.152344 201.347656 281.332031 198.90625 278.8125 197.40625 L 241.339844 175.09375 C 223.777344 164.632812 200.871094 170.335938 190.28125 187.816406 C 159.207031 239.140625 101.351562 334.878906 62.972656 399.335938 C 59.84375 404.585938 61.570312 411.378906 66.820312 414.5 C 68.589844 415.558594 70.539062 416.0625 72.46875 416.0625 C 76.238281 416.0625 79.914062 414.132812 81.984375 410.660156 C 106.039062 370.257812 137.757812 317.554688 165.726562 271.210938 L 169.53125 273.472656 C 170.863281 274.265625 172.324219 274.644531 173.769531 274.644531 C 176.597656 274.644531 179.355469 273.199219 180.90625 270.589844 C 183.253906 266.652344 181.960938 261.558594 178.023438 259.214844 L 174.304688 257.003906 C 187.570312 235.035156 199.664062 215.046875 209.214844 199.269531 C 213.515625 192.152344 222.863281 189.835938 230.023438 194.101562 L 258.992188 211.351562 C 255.960938 220.347656 255.550781 229.988281 257.710938 239.425781 Z M 257.710938 239.425781 " fill-opacity="1" fill-rule="nonzero"/><path fill="#696cff" d="M 33.605469 492.472656 C 36.734375 487.226562 35.015625 480.433594 29.765625 477.304688 C 24.511719 474.183594 17.722656 475.894531 14.597656 481.148438 C 13.085938 483.683594 11.523438 486.386719 9.984375 489.101562 C -0.0078125 506.695312 5.972656 529.410156 23.3125 539.734375 L 61.449219 562.441406 C 63.179688 563.472656 65.136719 564 67.113281 564 C 68.023438 564 68.9375 563.886719 69.832031 563.660156 C 72.675781 562.9375 75.117188 561.117188 76.621094 558.597656 C 77.925781 556.402344 79.492188 554.398438 81.285156 552.625 C 85.625 548.324219 85.660156 541.320312 81.363281 536.976562 C 77.0625 532.636719 70.058594 532.605469 65.714844 536.898438 C 65.226562 537.382812 64.75 537.875 64.28125 538.375 L 34.636719 520.722656 C 27.445312 516.4375 25.066406 507.347656 29.230469 500.023438 C 30.691406 497.445312 32.171875 494.878906 33.605469 492.472656 Z M 33.605469 492.472656 " fill-opacity="1" fill-rule="nonzero"/><path fill="#696cff" d="M 201.667969 273.296875 L 192.992188 287.441406 C 192.992188 287.441406 212.714844 299.53125 216.414062 301.734375 C 217.746094 302.527344 219.207031 302.902344 220.648438 302.902344 C 223.480469 302.902344 226.238281 301.453125 227.789062 298.847656 C 230.132812 294.90625 228.839844 289.816406 224.902344 287.472656 C 221.230469 285.289062 201.671875 273.296875 201.667969 273.296875 Z M 201.667969 273.296875 " fill-opacity="1" fill-rule="nonzero"/><path fill="#696cff" d="M 304.097656 439.832031 L 306.058594 416.527344 C 306.503906 411.261719 304.78125 406.222656 301.214844 402.34375 C 296.464844 397.179688 288.964844 395.074219 282.207031 397.054688 L 259.765625 403.636719 L 238.207031 394.570312 C 235.886719 393.59375 233.453125 393.097656 230.96875 393.097656 C 220.800781 393.097656 212.605469 401.0625 212.3125 411.234375 L 211.640625 434.613281 L 196.359375 452.3125 C 192.335938 456.972656 190.867188 463.308594 192.4375 469.265625 C 194.003906 475.226562 198.40625 480.019531 204.207031 482.089844 L 226.230469 489.953125 L 238.339844 509.960938 C 241.75 515.597656 247.722656 518.957031 254.316406 518.957031 C 260.136719 518.957031 265.523438 516.3125 269.085938 511.699219 L 283.375 493.183594 L 306.140625 487.847656 C 312.136719 486.441406 317.050781 482.175781 319.28125 476.433594 C 321.511719 470.6875 320.765625 464.230469 317.289062 459.144531 Z M 303.8125 470.421875 C 303.632812 470.882812 303.234375 471.480469 302.355469 471.6875 L 276.714844 477.695312 C 274.855469 478.132812 273.207031 479.195312 272.039062 480.703125 L 255.949219 501.554688 C 255.433594 502.222656 254.777344 502.359375 254.316406 502.359375 C 253.878906 502.359375 253.066406 502.230469 252.539062 501.363281 L 238.898438 478.835938 C 237.910156 477.203125 236.390625 475.960938 234.589844 475.320312 L 209.789062 466.460938 C 208.941406 466.15625 208.613281 465.519531 208.488281 465.039062 C 208.359375 464.558594 208.332031 463.839844 208.921875 463.160156 L 226.132812 443.226562 C 227.378906 441.78125 228.089844 439.949219 228.148438 438.042969 L 228.90625 411.714844 C 228.941406 410.335938 230.160156 409.691406 230.972656 409.691406 C 231.238281 409.691406 231.503906 409.75 231.777344 409.867188 L 256.050781 420.074219 C 257.820312 420.816406 259.785156 420.929688 261.601562 420.390625 L 286.878906 412.976562 C 287.675781 412.742188 288.453125 412.980469 289 413.574219 C 289.398438 414.007812 289.578125 414.53125 289.523438 415.136719 L 287.316406 441.378906 C 287.15625 443.28125 287.65625 445.179688 288.734375 446.757812 L 303.589844 468.503906 C 304.097656 469.25 303.992188 469.957031 303.8125 470.421875 Z M 303.8125 470.421875 " fill-opacity="1" fill-rule="nonzero"/><g fill="#000000" fill-opacity="1"><g transform="translate(591.969495, 452.224699)"><g><path d="M 55.65625 -78.078125 C 65.394531 -78.078125 73.203125 -75.234375 79.078125 -69.546875 C 84.960938 -63.859375 87.90625 -55.421875 87.90625 -44.234375 L 87.90625 0 L 69.828125 0 L 69.828125 -41.921875 C 69.828125 -48.671875 68.238281 -53.753906 65.0625 -57.171875 C 61.882812 -60.597656 57.351562 -62.3125 51.46875 -62.3125 C 44.820312 -62.3125 39.566406 -60.3125 35.703125 -56.3125 C 31.847656 -52.3125 29.921875 -46.550781 29.921875 -39.03125 L 29.921875 0 L 11.859375 0 L 11.859375 -107.28125 L 29.921875 -107.28125 L 29.921875 -68.234375 C 32.910156 -71.421875 36.597656 -73.859375 40.984375 -75.546875 C 45.367188 -77.234375 50.257812 -78.078125 55.65625 -78.078125 Z M 55.65625 -78.078125 "/></g></g></g><g fill="#000000" fill-opacity="1"><g transform="translate(691.000827, 452.224699)"><g><path d="M 41.34375 -78.078125 C 52.71875 -78.078125 61.414062 -75.351562 67.4375 -69.90625 C 73.46875 -64.457031 76.484375 -56.238281 76.484375 -45.25 L 76.484375 0 L 59.421875 0 L 59.421875 -9.390625 C 57.203125 -6.023438 54.046875 -3.445312 49.953125 -1.65625 C 45.859375 0.125 40.914062 1.015625 35.125 1.015625 C 29.34375 1.015625 24.285156 0.0234375 19.953125 -1.953125 C 15.617188 -3.929688 12.269531 -6.675781 9.90625 -10.1875 C 7.539062 -13.707031 6.359375 -17.6875 6.359375 -22.125 C 6.359375 -29.0625 8.9375 -34.625 14.09375 -38.8125 C 19.25 -43.007812 27.367188 -45.109375 38.453125 -45.109375 L 58.40625 -45.109375 L 58.40625 -46.265625 C 58.40625 -51.660156 56.789062 -55.800781 53.5625 -58.6875 C 50.332031 -61.582031 45.539062 -63.03125 39.1875 -63.03125 C 34.84375 -63.03125 30.570312 -62.351562 26.375 -61 C 22.1875 -59.65625 18.648438 -57.78125 15.765625 -55.375 L 8.671875 -68.53125 C 12.722656 -71.613281 17.59375 -73.972656 23.28125 -75.609375 C 28.96875 -77.253906 34.988281 -78.078125 41.34375 -78.078125 Z M 38.890625 -12.140625 C 43.421875 -12.140625 47.441406 -13.175781 50.953125 -15.25 C 54.472656 -17.320312 56.957031 -20.285156 58.40625 -24.140625 L 58.40625 -33.109375 L 39.765625 -33.109375 C 29.347656 -33.109375 24.140625 -29.6875 24.140625 -22.84375 C 24.140625 -19.5625 25.441406 -16.957031 28.046875 -15.03125 C 30.648438 -13.101562 34.265625 -12.140625 38.890625 -12.140625 Z M 38.890625 -12.140625 "/></g></g></g><g fill="#000000" fill-opacity="1"><g transform="translate(778.755589, 452.224699)"><g><path d="M 55.65625 -78.078125 C 65.394531 -78.078125 73.203125 -75.234375 79.078125 -69.546875 C 84.960938 -63.859375 87.90625 -55.421875 87.90625 -44.234375 L 87.90625 0 L 69.828125 0 L 69.828125 -41.921875 C 69.828125 -48.671875 68.238281 -53.753906 65.0625 -57.171875 C 61.882812 -60.597656 57.351562 -62.3125 51.46875 -62.3125 C 44.820312 -62.3125 39.566406 -60.3125 35.703125 -56.3125 C 31.847656 -52.3125 29.921875 -46.550781 29.921875 -39.03125 L 29.921875 0 L 11.859375 0 L 11.859375 -107.28125 L 29.921875 -107.28125 L 29.921875 -68.234375 C 32.910156 -71.421875 36.597656 -73.859375 40.984375 -75.546875 C 45.367188 -77.234375 50.257812 -78.078125 55.65625 -78.078125 Z M 55.65625 -78.078125 "/></g></g></g><g fill="#000000" fill-opacity="1"><g transform="translate(877.786921, 452.224699)"><g><path d="M 58.265625 -4.1875 C 56.140625 -2.457031 53.554688 -1.15625 50.515625 -0.28125 C 47.484375 0.582031 44.285156 1.015625 40.921875 1.015625 C 32.429688 1.015625 25.875 -1.203125 21.25 -5.640625 C 16.625 -10.078125 14.3125 -16.535156 14.3125 -25.015625 L 14.3125 -62.171875 L 1.59375 -62.171875 L 1.59375 -76.625 L 14.3125 -76.625 L 14.3125 -94.265625 L 32.390625 -94.265625 L 32.390625 -76.625 L 53.0625 -76.625 L 53.0625 -62.171875 L 32.390625 -62.171875 L 32.390625 -25.453125 C 32.390625 -21.691406 33.300781 -18.820312 35.125 -16.84375 C 36.957031 -14.863281 39.609375 -13.875 43.078125 -13.875 C 47.128906 -13.875 50.503906 -14.9375 53.203125 -17.0625 Z M 58.265625 -4.1875 "/></g></g></g><g fill="#000000" fill-opacity="1"><g transform="translate(939.085123, 452.224699)"><g><path d="M 11.859375 -77.203125 L 29.921875 -77.203125 L 29.921875 0 L 11.859375 0 Z M 20.96875 -89.921875 C 17.6875 -89.921875 14.9375 -90.957031 12.71875 -93.03125 C 10.507812 -95.101562 9.40625 -97.679688 9.40625 -100.765625 C 9.40625 -103.847656 10.507812 -106.425781 12.71875 -108.5 C 14.9375 -110.570312 17.6875 -111.609375 20.96875 -111.609375 C 24.25 -111.609375 26.992188 -110.617188 29.203125 -108.640625 C 31.421875 -106.671875 32.53125 -104.191406 32.53125 -101.203125 C 32.53125 -98.023438 31.445312 -95.347656 29.28125 -93.171875 C 27.113281 -91.003906 24.34375 -89.921875 20.96875 -89.921875 Z M 20.96875 -89.921875 "/></g></g></g><g fill="#000000" fill-opacity="1"><g transform="translate(980.866222, 452.224699)"><g><path d="M 47.28125 1.015625 C 39.28125 1.015625 32.097656 -0.671875 25.734375 -4.046875 C 19.367188 -7.421875 14.40625 -12.117188 10.84375 -18.140625 C 7.28125 -24.171875 5.5 -30.992188 5.5 -38.609375 C 5.5 -46.222656 7.28125 -53.015625 10.84375 -58.984375 C 14.40625 -64.960938 19.34375 -69.640625 25.65625 -73.015625 C 31.96875 -76.390625 39.175781 -78.078125 47.28125 -78.078125 C 54.894531 -78.078125 61.566406 -76.53125 67.296875 -73.4375 C 73.035156 -70.351562 77.347656 -65.921875 80.234375 -60.140625 L 66.359375 -52.046875 C 64.140625 -55.609375 61.367188 -58.28125 58.046875 -60.0625 C 54.722656 -61.851562 51.082031 -62.75 47.125 -62.75 C 40.382812 -62.75 34.796875 -60.554688 30.359375 -56.171875 C 25.921875 -51.785156 23.703125 -45.929688 23.703125 -38.609375 C 23.703125 -31.273438 25.894531 -25.414062 30.28125 -21.03125 C 34.675781 -16.644531 40.289062 -14.453125 47.125 -14.453125 C 51.082031 -14.453125 54.722656 -15.34375 58.046875 -17.125 C 61.367188 -18.914062 64.140625 -21.59375 66.359375 -25.15625 L 80.234375 -17.0625 C 77.253906 -11.28125 72.894531 -6.820312 67.15625 -3.6875 C 61.414062 -0.550781 54.789062 1.015625 47.28125 1.015625 Z M 47.28125 1.015625 "/></g></g></g><g fill="#000000" fill-opacity="1"><g transform="translate(1064.86211, 452.224699)"><g><path d="M 43.375 -33.109375 L 29.921875 -20.390625 L 29.921875 0 L 11.859375 0 L 11.859375 -107.28125 L 29.921875 -107.28125 L 29.921875 -42.5 L 67.375 -77.203125 L 89.0625 -77.203125 L 56.8125 -44.8125 L 92.09375 0 L 70.125 0 Z M 43.375 -33.109375 "/></g></g></g><g fill="#000000" fill-opacity="1"><g transform="translate(1156.809437, 452.224699)"><g><path d="M 84.4375 -38.171875 C 84.4375 -36.921875 84.335938 -35.132812 84.140625 -32.8125 L 23.5625 -32.8125 C 24.625 -27.132812 27.394531 -22.628906 31.875 -19.296875 C 36.363281 -15.972656 41.929688 -14.3125 48.578125 -14.3125 C 57.054688 -14.3125 64.046875 -17.109375 69.546875 -22.703125 L 79.234375 -11.5625 C 75.765625 -7.414062 71.378906 -4.28125 66.078125 -2.15625 C 60.773438 -0.0390625 54.796875 1.015625 48.140625 1.015625 C 39.660156 1.015625 32.191406 -0.671875 25.734375 -4.046875 C 19.273438 -7.421875 14.285156 -12.117188 10.765625 -18.140625 C 7.253906 -24.171875 5.5 -30.992188 5.5 -38.609375 C 5.5 -46.117188 7.207031 -52.882812 10.625 -58.90625 C 14.050781 -64.9375 18.796875 -69.640625 24.859375 -73.015625 C 30.929688 -76.390625 37.773438 -78.078125 45.390625 -78.078125 C 52.910156 -78.078125 59.632812 -76.410156 65.5625 -73.078125 C 71.488281 -69.753906 76.113281 -65.082031 79.4375 -59.0625 C 82.769531 -53.039062 84.4375 -46.078125 84.4375 -38.171875 Z M 45.390625 -63.609375 C 39.609375 -63.609375 34.71875 -61.894531 30.71875 -58.46875 C 26.71875 -55.050781 24.285156 -50.5 23.421875 -44.8125 L 67.234375 -44.8125 C 66.460938 -50.40625 64.097656 -54.9375 60.140625 -58.40625 C 56.191406 -61.875 51.273438 -63.609375 45.390625 -63.609375 Z M 45.390625 -63.609375 "/></g></g></g><g fill="#000000" fill-opacity="1"><g transform="translate(1246.732755, 452.224699)"><g><path d="M 58.265625 -4.1875 C 56.140625 -2.457031 53.554688 -1.15625 50.515625 -0.28125 C 47.484375 0.582031 44.285156 1.015625 40.921875 1.015625 C 32.429688 1.015625 25.875 -1.203125 21.25 -5.640625 C 16.625 -10.078125 14.3125 -16.535156 14.3125 -25.015625 L 14.3125 -62.171875 L 1.59375 -62.171875 L 1.59375 -76.625 L 14.3125 -76.625 L 14.3125 -94.265625 L 32.390625 -94.265625 L 32.390625 -76.625 L 53.0625 -76.625 L 53.0625 -62.171875 L 32.390625 -62.171875 L 32.390625 -25.453125 C 32.390625 -21.691406 33.300781 -18.820312 35.125 -16.84375 C 36.957031 -14.863281 39.609375 -13.875 43.078125 -13.875 C 47.128906 -13.875 50.503906 -14.9375 53.203125 -17.0625 Z M 58.265625 -4.1875 "/></g></g></g><g fill="#000000" fill-opacity="1"><g transform="translate(1308.030957, 452.224699)"><g><path d="M 32.09375 -33.546875 C 32.09375 -38.742188 33.273438 -43.050781 35.640625 -46.46875 C 38.003906 -49.894531 41.445312 -53.632812 45.96875 -57.6875 C 49.445312 -60.769531 52.023438 -63.441406 53.703125 -65.703125 C 55.390625 -67.972656 56.234375 -70.554688 56.234375 -73.453125 C 56.234375 -77.492188 54.59375 -80.765625 51.3125 -83.265625 C 48.039062 -85.773438 43.660156 -87.03125 38.171875 -87.03125 C 27.753906 -87.03125 19.898438 -83.320312 14.609375 -75.90625 L 0.578125 -85.015625 C 4.722656 -90.703125 10.070312 -95.0625 16.625 -98.09375 C 23.175781 -101.132812 30.890625 -102.65625 39.765625 -102.65625 C 50.554688 -102.65625 59.15625 -100.316406 65.5625 -95.640625 C 71.976562 -90.960938 75.1875 -84.53125 75.1875 -76.34375 C 75.1875 -72.382812 74.535156 -68.910156 73.234375 -65.921875 C 71.929688 -62.941406 70.363281 -60.414062 68.53125 -58.34375 C 66.695312 -56.269531 64.285156 -53.882812 61.296875 -51.1875 C 57.640625 -47.90625 54.914062 -45.007812 53.125 -42.5 C 51.34375 -40 50.453125 -37.015625 50.453125 -33.546875 Z M 41.34375 1.015625 C 37.976562 1.015625 35.207031 -0.0664062 33.03125 -2.234375 C 30.863281 -4.410156 29.78125 -7.085938 29.78125 -10.265625 C 29.78125 -13.441406 30.863281 -16.085938 33.03125 -18.203125 C 35.207031 -20.328125 37.976562 -21.390625 41.34375 -21.390625 C 44.625 -21.390625 47.347656 -20.328125 49.515625 -18.203125 C 51.679688 -16.085938 52.765625 -13.441406 52.765625 -10.265625 C 52.765625 -7.085938 51.679688 -4.410156 49.515625 -2.234375 C 47.347656 -0.0664062 44.625 1.015625 41.34375 1.015625 Z M 41.34375 1.015625 "/></g></g></g><g fill="#000000" fill-opacity="1"><g transform="translate(1392.026845, 452.224699)"><g><path d="M 9.546875 -101.203125 L 30.9375 -101.203125 L 27.328125 -33.546875 L 13.015625 -33.546875 Z M 20.234375 1.015625 C 16.867188 1.015625 14.078125 -0.0664062 11.859375 -2.234375 C 9.640625 -4.410156 8.53125 -7.085938 8.53125 -10.265625 C 8.53125 -13.441406 9.640625 -16.085938 11.859375 -18.203125 C 14.078125 -20.328125 16.867188 -21.390625 20.234375 -21.390625 C 23.515625 -21.390625 26.238281 -20.328125 28.40625 -18.203125 C 30.570312 -16.085938 31.65625 -13.441406 31.65625 -10.265625 C 31.65625 -7.085938 30.570312 -4.410156 28.40625 -2.234375 C 26.238281 -0.0664062 23.515625 1.015625 20.234375 1.015625 Z M 20.234375 1.015625 "/></g></g></g></svg>