<svg xmlns="http://www.w3.org/2000/svg" xmlns:xlink="http://www.w3.org/1999/xlink" width="500" zoomAndPan="magnify" viewBox="0 0 375 374.999991" height="500" preserveAspectRatio="xMidYMid meet" version="1.0"><defs><g/><clipPath id="0fdbdd7cc1"><path d="M 11 143 L 131 143 L 131 249.699219 L 11 249.699219 Z M 11 143 " clip-rule="nonzero"/></clipPath></defs><g clip-path="url(#0fdbdd7cc1)"><path fill="#696cff" d="M 123.152344 175.398438 C 122.277344 174.070312 120.492188 173.699219 119.164062 174.578125 C 117.886719 175.417969 116.410156 175.859375 114.890625 175.859375 C 112.257812 175.863281 109.820312 174.550781 108.375 172.355469 C 106.015625 168.769531 107.011719 163.929688 110.597656 161.566406 C 111.925781 160.691406 112.292969 158.90625 111.417969 157.578125 L 105.203125 148.136719 C 103.398438 145.390625 100.359375 143.753906 97.070312 143.753906 C 95.167969 143.753906 93.320312 144.308594 91.726562 145.359375 L 15.570312 195.496094 C 13.398438 196.925781 11.914062 199.113281 11.390625 201.660156 C 10.867188 204.207031 11.363281 206.800781 12.792969 208.972656 L 19.007812 218.414062 C 19.429688 219.054688 20.085938 219.5 20.835938 219.652344 C 21.582031 219.804688 22.359375 219.660156 23 219.238281 C 24.277344 218.398438 25.753906 217.953125 27.273438 217.953125 C 29.90625 217.953125 32.34375 219.265625 33.789062 221.460938 C 36.148438 225.046875 35.152344 229.886719 31.566406 232.246094 C 30.925781 232.667969 30.480469 233.324219 30.328125 234.070312 C 30.171875 234.820312 30.320312 235.601562 30.742188 236.238281 L 36.960938 245.683594 C 38.765625 248.425781 41.804688 250.0625 45.089844 250.0625 L 45.09375 250.0625 C 46.996094 250.0625 48.84375 249.507812 50.4375 248.457031 L 126.59375 198.320312 C 128.761719 196.890625 130.246094 194.703125 130.773438 192.15625 C 131.296875 189.613281 130.796875 187.015625 129.371094 184.84375 Z M 123.425781 193.507812 L 108.785156 203.144531 L 107.992188 201.941406 C 107.335938 200.945312 105.996094 200.671875 105 201.328125 C 104 201.984375 103.726562 203.324219 104.382812 204.320312 L 105.175781 205.523438 L 47.269531 243.644531 C 46.617188 244.074219 45.867188 244.300781 45.09375 244.300781 C 43.75 244.300781 42.507812 243.632812 41.773438 242.511719 L 36.972656 235.21875 C 41.332031 230.761719 42.164062 223.707031 38.601562 218.292969 C 36.085938 214.472656 31.851562 212.191406 27.273438 212.191406 C 25.597656 212.191406 23.953125 212.5 22.40625 213.097656 L 17.605469 205.804688 C 17.023438 204.917969 16.820312 203.859375 17.035156 202.824219 C 17.25 201.785156 17.851562 200.890625 18.738281 200.308594 L 76.644531 162.1875 L 77.4375 163.390625 C 77.851562 164.019531 78.539062 164.363281 79.242188 164.363281 C 79.652344 164.363281 80.0625 164.246094 80.429688 164.007812 C 81.425781 163.351562 81.703125 162.011719 81.046875 161.015625 L 80.253906 159.808594 L 94.894531 150.171875 C 96.675781 148.996094 99.230469 149.539062 100.390625 151.300781 L 105.191406 158.597656 C 100.832031 163.054688 99.996094 170.109375 103.5625 175.523438 C 106.078125 179.34375 110.3125 181.625 114.890625 181.625 C 116.566406 181.625 118.210938 181.3125 119.757812 180.71875 L 124.558594 188.011719 C 125.761719 189.835938 125.253906 192.304688 123.425781 193.507812 Z M 123.425781 193.507812 " fill-opacity="1" fill-rule="nonzero"/></g><path fill="#696cff" d="M 97.214844 185.570312 C 96.558594 184.574219 95.21875 184.296875 94.222656 184.953125 C 93.222656 185.609375 92.949219 186.949219 93.605469 187.945312 L 98.992188 196.132812 C 99.40625 196.761719 100.097656 197.105469 100.800781 197.105469 C 101.207031 197.105469 101.621094 196.988281 101.984375 196.75 C 102.980469 196.09375 103.257812 194.753906 102.601562 193.757812 Z M 97.214844 185.570312 " fill-opacity="1" fill-rule="nonzero"/><path fill="#696cff" d="M 86.4375 169.199219 C 85.78125 168.203125 84.441406 167.925781 83.441406 168.582031 C 82.445312 169.238281 82.167969 170.578125 82.824219 171.574219 L 88.214844 179.761719 C 88.628906 180.390625 89.320312 180.734375 90.023438 180.734375 C 90.429688 180.734375 90.839844 180.617188 91.207031 180.378906 C 92.203125 179.722656 92.480469 178.382812 91.824219 177.382812 Z M 86.4375 169.199219 " fill-opacity="1" fill-rule="nonzero"/><path fill="#696cff" d="M 67.113281 144.382812 C 67.117188 144.410156 67.125 144.4375 67.128906 144.464844 C 67.152344 144.566406 67.15625 144.667969 67.183594 144.769531 C 67.191406 144.804688 67.210938 144.835938 67.21875 144.867188 C 67.230469 144.902344 67.230469 144.933594 67.242188 144.96875 C 68.609375 149.019531 71.328125 151.871094 74.894531 152.996094 C 75.183594 153.089844 75.476562 153.132812 75.761719 153.132812 C 76.988281 153.132812 78.121094 152.34375 78.511719 151.117188 C 78.988281 149.597656 78.148438 147.980469 76.628906 147.5 C 74.894531 146.953125 73.519531 145.441406 72.75 143.25 C 72.25 141.242188 72.550781 139.164062 73.609375 137.390625 C 74 136.730469 74.113281 135.945312 73.925781 135.207031 C 73.738281 134.464844 73.261719 133.832031 72.605469 133.4375 L 62.847656 127.628906 C 58.273438 124.902344 52.308594 126.390625 49.550781 130.941406 C 41.460938 144.308594 26.394531 169.238281 16.398438 186.023438 C 15.585938 187.390625 16.035156 189.160156 17.402344 189.972656 C 17.863281 190.25 18.371094 190.382812 18.871094 190.382812 C 19.855469 190.382812 20.8125 189.878906 21.351562 188.972656 C 27.613281 178.453125 35.875 164.726562 43.160156 152.660156 L 44.148438 153.25 C 44.496094 153.457031 44.875 153.554688 45.253906 153.554688 C 45.988281 153.554688 46.707031 153.175781 47.109375 152.496094 C 47.722656 151.472656 47.386719 150.144531 46.359375 149.535156 L 45.390625 148.957031 C 48.847656 143.238281 51.996094 138.03125 54.484375 133.925781 C 55.601562 132.070312 58.039062 131.46875 59.902344 132.578125 L 67.445312 137.070312 C 66.65625 139.414062 66.550781 141.925781 67.113281 144.382812 Z M 67.113281 144.382812 " fill-opacity="1" fill-rule="nonzero"/><path fill="#696cff" d="M 8.75 210.28125 C 9.566406 208.914062 9.117188 207.144531 7.75 206.328125 C 6.382812 205.515625 4.613281 205.960938 3.800781 207.332031 C 3.40625 207.992188 3 208.695312 2.601562 209.402344 C 0 213.984375 1.554688 219.898438 6.070312 222.585938 L 16.003906 228.5 C 16.453125 228.769531 16.960938 228.90625 17.476562 228.90625 C 17.714844 228.90625 17.953125 228.878906 18.183594 228.816406 C 18.925781 228.628906 19.5625 228.15625 19.953125 227.5 C 20.292969 226.929688 20.699219 226.40625 21.167969 225.945312 C 22.296875 224.824219 22.308594 223 21.1875 221.867188 C 20.070312 220.738281 18.246094 220.730469 17.113281 221.847656 C 16.988281 221.972656 16.863281 222.101562 16.738281 222.234375 L 9.019531 217.636719 C 7.148438 216.519531 6.527344 214.152344 7.613281 212.246094 C 7.992188 211.574219 8.378906 210.90625 8.75 210.28125 Z M 8.75 210.28125 " fill-opacity="1" fill-rule="nonzero"/><path fill="#696cff" d="M 52.515625 153.203125 L 50.257812 156.886719 C 50.257812 156.886719 55.394531 160.035156 56.359375 160.609375 C 56.703125 160.8125 57.085938 160.910156 57.460938 160.910156 C 58.199219 160.910156 58.917969 160.535156 59.320312 159.855469 C 59.929688 158.828125 59.59375 157.503906 58.566406 156.894531 C 57.613281 156.324219 52.519531 153.203125 52.515625 153.203125 Z M 52.515625 153.203125 " fill-opacity="1" fill-rule="nonzero"/><path fill="#696cff" d="M 79.191406 196.570312 L 79.703125 190.503906 C 79.820312 189.128906 79.371094 187.820312 78.441406 186.808594 C 77.203125 185.464844 75.25 184.914062 73.492188 185.429688 L 67.648438 187.144531 L 62.03125 184.785156 C 61.429688 184.53125 60.796875 184.402344 60.148438 184.402344 C 57.5 184.402344 55.367188 186.476562 55.289062 189.125 L 55.113281 195.210938 L 51.136719 199.820312 C 50.085938 201.035156 49.707031 202.683594 50.113281 204.234375 C 50.523438 205.789062 51.667969 207.035156 53.179688 207.574219 L 58.914062 209.625 L 62.066406 214.832031 C 62.957031 216.300781 64.511719 217.175781 66.226562 217.175781 C 67.746094 217.175781 69.144531 216.488281 70.074219 215.285156 L 73.796875 210.464844 L 79.722656 209.074219 C 81.285156 208.710938 82.566406 207.597656 83.144531 206.101562 C 83.726562 204.605469 83.53125 202.925781 82.628906 201.601562 Z M 79.117188 204.535156 C 79.070312 204.65625 78.96875 204.8125 78.738281 204.867188 L 72.0625 206.429688 C 71.578125 206.542969 71.148438 206.820312 70.84375 207.214844 L 66.652344 212.644531 C 66.519531 212.820312 66.347656 212.855469 66.226562 212.855469 C 66.113281 212.855469 65.902344 212.820312 65.765625 212.59375 L 62.214844 206.726562 C 61.957031 206.304688 61.558594 205.980469 61.089844 205.8125 L 54.632812 203.503906 C 54.414062 203.425781 54.328125 203.261719 54.292969 203.136719 C 54.261719 203.011719 54.253906 202.824219 54.40625 202.644531 L 58.886719 197.453125 C 59.214844 197.078125 59.398438 196.601562 59.414062 196.105469 L 59.609375 189.25 C 59.621094 188.890625 59.9375 188.722656 60.148438 188.722656 C 60.21875 188.722656 60.289062 188.738281 60.359375 188.765625 L 66.679688 191.425781 C 67.140625 191.617188 67.652344 191.648438 68.125 191.507812 L 74.707031 189.578125 C 74.914062 189.515625 75.117188 189.578125 75.261719 189.734375 C 75.363281 189.847656 75.410156 189.984375 75.398438 190.140625 L 74.820312 196.972656 C 74.78125 197.46875 74.910156 197.964844 75.191406 198.375 L 79.058594 204.039062 C 79.191406 204.230469 79.164062 204.414062 79.117188 204.535156 Z M 79.117188 204.535156 " fill-opacity="1" fill-rule="nonzero"/><g fill="#000000" fill-opacity="1"><g transform="translate(154.158739, 199.798102)"><g><path d="M 14.5 -20.328125 C 17.03125 -20.328125 19.0625 -19.585938 20.59375 -18.109375 C 22.125 -16.628906 22.890625 -14.429688 22.890625 -11.515625 L 22.890625 0 L 18.1875 0 L 18.1875 -10.921875 C 18.1875 -12.679688 17.769531 -14.003906 16.9375 -14.890625 C 16.113281 -15.785156 14.9375 -16.234375 13.40625 -16.234375 C 11.675781 -16.234375 10.304688 -15.710938 9.296875 -14.671875 C 8.296875 -13.628906 7.796875 -12.128906 7.796875 -10.171875 L 7.796875 0 L 3.09375 0 L 3.09375 -27.9375 L 7.796875 -27.9375 L 7.796875 -17.78125 C 8.578125 -18.601562 9.535156 -19.234375 10.671875 -19.671875 C 11.816406 -20.109375 13.09375 -20.328125 14.5 -20.328125 Z M 14.5 -20.328125 "/></g></g></g><g fill="#000000" fill-opacity="1"><g transform="translate(179.948149, 199.798102)"><g><path d="M 10.765625 -20.328125 C 13.734375 -20.328125 16 -19.617188 17.5625 -18.203125 C 19.132812 -16.785156 19.921875 -14.644531 19.921875 -11.78125 L 19.921875 0 L 15.484375 0 L 15.484375 -2.453125 C 14.898438 -1.566406 14.070312 -0.890625 13 -0.421875 C 11.9375 0.0351562 10.65625 0.265625 9.15625 0.265625 C 7.644531 0.265625 6.320312 0.0078125 5.1875 -0.5 C 4.0625 -1.019531 3.191406 -1.738281 2.578125 -2.65625 C 1.960938 -3.570312 1.65625 -4.609375 1.65625 -5.765625 C 1.65625 -7.566406 2.328125 -9.015625 3.671875 -10.109375 C 5.015625 -11.203125 7.128906 -11.75 10.015625 -11.75 L 15.21875 -11.75 L 15.21875 -12.046875 C 15.21875 -13.453125 14.796875 -14.53125 13.953125 -15.28125 C 13.109375 -16.039062 11.859375 -16.421875 10.203125 -16.421875 C 9.078125 -16.421875 7.96875 -16.242188 6.875 -15.890625 C 5.78125 -15.535156 4.859375 -15.046875 4.109375 -14.421875 L 2.265625 -17.84375 C 3.316406 -18.644531 4.582031 -19.257812 6.0625 -19.6875 C 7.539062 -20.113281 9.109375 -20.328125 10.765625 -20.328125 Z M 10.125 -3.15625 C 11.3125 -3.15625 12.359375 -3.425781 13.265625 -3.96875 C 14.179688 -4.507812 14.832031 -5.28125 15.21875 -6.28125 L 15.21875 -8.625 L 10.359375 -8.625 C 7.640625 -8.625 6.28125 -7.734375 6.28125 -5.953125 C 6.28125 -5.097656 6.617188 -4.414062 7.296875 -3.90625 C 7.984375 -3.40625 8.925781 -3.15625 10.125 -3.15625 Z M 10.125 -3.15625 "/></g></g></g><g fill="#000000" fill-opacity="1"><g transform="translate(202.800952, 199.798102)"><g><path d="M 14.5 -20.328125 C 17.03125 -20.328125 19.0625 -19.585938 20.59375 -18.109375 C 22.125 -16.628906 22.890625 -14.429688 22.890625 -11.515625 L 22.890625 0 L 18.1875 0 L 18.1875 -10.921875 C 18.1875 -12.679688 17.769531 -14.003906 16.9375 -14.890625 C 16.113281 -15.785156 14.9375 -16.234375 13.40625 -16.234375 C 11.675781 -16.234375 10.304688 -15.710938 9.296875 -14.671875 C 8.296875 -13.628906 7.796875 -12.128906 7.796875 -10.171875 L 7.796875 0 L 3.09375 0 L 3.09375 -27.9375 L 7.796875 -27.9375 L 7.796875 -17.78125 C 8.578125 -18.601562 9.535156 -19.234375 10.671875 -19.671875 C 11.816406 -20.109375 13.09375 -20.328125 14.5 -20.328125 Z M 14.5 -20.328125 "/></g></g></g><g fill="#000000" fill-opacity="1"><g transform="translate(228.590362, 199.798102)"><g><path d="M 15.171875 -1.09375 C 14.617188 -0.644531 13.945312 -0.304688 13.15625 -0.078125 C 12.363281 0.148438 11.53125 0.265625 10.65625 0.265625 C 8.445312 0.265625 6.738281 -0.3125 5.53125 -1.46875 C 4.332031 -2.625 3.734375 -4.304688 3.734375 -6.515625 L 3.734375 -16.1875 L 0.421875 -16.1875 L 0.421875 -19.953125 L 3.734375 -19.953125 L 3.734375 -24.546875 L 8.4375 -24.546875 L 8.4375 -19.953125 L 13.8125 -19.953125 L 13.8125 -16.1875 L 8.4375 -16.1875 L 8.4375 -6.625 C 8.4375 -5.644531 8.671875 -4.894531 9.140625 -4.375 C 9.617188 -3.863281 10.3125 -3.609375 11.21875 -3.609375 C 12.269531 -3.609375 13.148438 -3.882812 13.859375 -4.4375 Z M 15.171875 -1.09375 "/></g></g></g><g fill="#000000" fill-opacity="1"><g transform="translate(244.553435, 199.798102)"><g><path d="M 3.09375 -20.109375 L 7.796875 -20.109375 L 7.796875 0 L 3.09375 0 Z M 5.453125 -23.421875 C 4.597656 -23.421875 3.878906 -23.691406 3.296875 -24.234375 C 2.722656 -24.773438 2.4375 -25.445312 2.4375 -26.25 C 2.4375 -27.050781 2.722656 -27.722656 3.296875 -28.265625 C 3.878906 -28.804688 4.597656 -29.078125 5.453125 -29.078125 C 6.304688 -29.078125 7.019531 -28.816406 7.59375 -28.296875 C 8.175781 -27.785156 8.46875 -27.140625 8.46875 -26.359375 C 8.46875 -25.523438 8.179688 -24.828125 7.609375 -24.265625 C 7.046875 -23.703125 6.328125 -23.421875 5.453125 -23.421875 Z M 5.453125 -23.421875 "/></g></g></g><g fill="#000000" fill-opacity="1"><g transform="translate(255.43393, 199.798102)"><g><path d="M 12.3125 0.265625 C 10.226562 0.265625 8.359375 -0.171875 6.703125 -1.046875 C 5.046875 -1.929688 3.753906 -3.15625 2.828125 -4.71875 C 1.898438 -6.289062 1.4375 -8.066406 1.4375 -10.046875 C 1.4375 -12.035156 1.898438 -13.804688 2.828125 -15.359375 C 3.753906 -16.921875 5.039062 -18.140625 6.6875 -19.015625 C 8.332031 -19.890625 10.207031 -20.328125 12.3125 -20.328125 C 14.289062 -20.328125 16.023438 -19.925781 17.515625 -19.125 C 19.015625 -18.320312 20.144531 -17.171875 20.90625 -15.671875 L 17.28125 -13.5625 C 16.707031 -14.488281 15.984375 -15.179688 15.109375 -15.640625 C 14.242188 -16.109375 13.300781 -16.34375 12.28125 -16.34375 C 10.519531 -16.34375 9.0625 -15.769531 7.90625 -14.625 C 6.75 -13.488281 6.171875 -11.960938 6.171875 -10.046875 C 6.171875 -8.140625 6.742188 -6.613281 7.890625 -5.46875 C 9.035156 -4.332031 10.5 -3.765625 12.28125 -3.765625 C 13.300781 -3.765625 14.242188 -3.992188 15.109375 -4.453125 C 15.984375 -4.921875 16.707031 -5.617188 17.28125 -6.546875 L 20.90625 -4.4375 C 20.125 -2.9375 18.984375 -1.773438 17.484375 -0.953125 C 15.992188 -0.140625 14.269531 0.265625 12.3125 0.265625 Z M 12.3125 0.265625 "/></g></g></g><g fill="#000000" fill-opacity="1"><g transform="translate(277.307859, 199.798102)"><g><path d="M 11.296875 -8.625 L 7.796875 -5.3125 L 7.796875 0 L 3.09375 0 L 3.09375 -27.9375 L 7.796875 -27.9375 L 7.796875 -11.078125 L 17.546875 -20.109375 L 23.203125 -20.109375 L 14.796875 -11.671875 L 23.984375 0 L 18.265625 0 Z M 11.296875 -8.625 "/></g></g></g><g fill="#000000" fill-opacity="1"><g transform="translate(301.252476, 199.798102)"><g><path d="M 21.984375 -9.9375 C 21.984375 -9.613281 21.960938 -9.148438 21.921875 -8.546875 L 6.140625 -8.546875 C 6.410156 -7.066406 7.128906 -5.894531 8.296875 -5.03125 C 9.460938 -4.164062 10.914062 -3.734375 12.65625 -3.734375 C 14.863281 -3.734375 16.679688 -4.457031 18.109375 -5.90625 L 20.640625 -3.015625 C 19.734375 -1.929688 18.585938 -1.113281 17.203125 -0.5625 C 15.828125 -0.0078125 14.273438 0.265625 12.546875 0.265625 C 10.328125 0.265625 8.378906 -0.171875 6.703125 -1.046875 C 5.023438 -1.929688 3.726562 -3.15625 2.8125 -4.71875 C 1.894531 -6.289062 1.4375 -8.066406 1.4375 -10.046875 C 1.4375 -12.003906 1.878906 -13.769531 2.765625 -15.34375 C 3.660156 -16.914062 4.894531 -18.140625 6.46875 -19.015625 C 8.050781 -19.890625 9.835938 -20.328125 11.828125 -20.328125 C 13.785156 -20.328125 15.535156 -19.894531 17.078125 -19.03125 C 18.617188 -18.164062 19.820312 -16.945312 20.6875 -15.375 C 21.550781 -13.8125 21.984375 -12 21.984375 -9.9375 Z M 11.828125 -16.5625 C 10.316406 -16.5625 9.039062 -16.113281 8 -15.21875 C 6.957031 -14.332031 6.320312 -13.148438 6.09375 -11.671875 L 17.515625 -11.671875 C 17.304688 -13.128906 16.6875 -14.304688 15.65625 -15.203125 C 14.632812 -16.109375 13.359375 -16.5625 11.828125 -16.5625 Z M 11.828125 -16.5625 "/></g></g></g><g fill="#000000" fill-opacity="1"><g transform="translate(324.670007, 199.798102)"><g><path d="M 15.171875 -1.09375 C 14.617188 -0.644531 13.945312 -0.304688 13.15625 -0.078125 C 12.363281 0.148438 11.53125 0.265625 10.65625 0.265625 C 8.445312 0.265625 6.738281 -0.3125 5.53125 -1.46875 C 4.332031 -2.625 3.734375 -4.304688 3.734375 -6.515625 L 3.734375 -16.1875 L 0.421875 -16.1875 L 0.421875 -19.953125 L 3.734375 -19.953125 L 3.734375 -24.546875 L 8.4375 -24.546875 L 8.4375 -19.953125 L 13.8125 -19.953125 L 13.8125 -16.1875 L 8.4375 -16.1875 L 8.4375 -6.625 C 8.4375 -5.644531 8.671875 -4.894531 9.140625 -4.375 C 9.617188 -3.863281 10.3125 -3.609375 11.21875 -3.609375 C 12.269531 -3.609375 13.148438 -3.882812 13.859375 -4.4375 Z M 15.171875 -1.09375 "/></g></g></g><g fill="#000000" fill-opacity="1"><g transform="translate(340.633081, 199.798102)"><g><path d="M 8.359375 -8.734375 C 8.359375 -10.085938 8.664062 -11.207031 9.28125 -12.09375 C 9.894531 -12.988281 10.789062 -13.96875 11.96875 -15.03125 C 12.875 -15.832031 13.546875 -16.523438 13.984375 -17.109375 C 14.421875 -17.703125 14.640625 -18.375 14.640625 -19.125 C 14.640625 -20.1875 14.210938 -21.039062 13.359375 -21.6875 C 12.515625 -22.34375 11.375 -22.671875 9.9375 -22.671875 C 7.226562 -22.671875 5.179688 -21.703125 3.796875 -19.765625 L 0.15625 -22.140625 C 1.226562 -23.617188 2.617188 -24.753906 4.328125 -25.546875 C 6.035156 -26.335938 8.046875 -26.734375 10.359375 -26.734375 C 13.171875 -26.734375 15.410156 -26.125 17.078125 -24.90625 C 18.742188 -23.6875 19.578125 -22.007812 19.578125 -19.875 C 19.578125 -18.851562 19.40625 -17.953125 19.0625 -17.171875 C 18.726562 -16.390625 18.320312 -15.726562 17.84375 -15.1875 C 17.375 -14.65625 16.75 -14.035156 15.96875 -13.328125 C 15.007812 -12.472656 14.296875 -11.71875 13.828125 -11.0625 C 13.367188 -10.414062 13.140625 -9.640625 13.140625 -8.734375 Z M 10.765625 0.265625 C 9.890625 0.265625 9.164062 -0.015625 8.59375 -0.578125 C 8.03125 -1.148438 7.75 -1.847656 7.75 -2.671875 C 7.75 -3.503906 8.03125 -4.195312 8.59375 -4.75 C 9.164062 -5.300781 9.890625 -5.578125 10.765625 -5.578125 C 11.617188 -5.578125 12.328125 -5.300781 12.890625 -4.75 C 13.460938 -4.195312 13.75 -3.503906 13.75 -2.671875 C 13.75 -1.847656 13.460938 -1.148438 12.890625 -0.578125 C 12.328125 -0.015625 11.617188 0.265625 10.765625 0.265625 Z M 10.765625 0.265625 "/></g></g></g><g fill="#000000" fill-opacity="1"><g transform="translate(362.50701, 199.798102)"><g><path d="M 2.484375 -26.359375 L 8.0625 -26.359375 L 7.109375 -8.734375 L 3.390625 -8.734375 Z M 5.265625 0.265625 C 4.390625 0.265625 3.660156 -0.015625 3.078125 -0.578125 C 2.503906 -1.148438 2.21875 -1.847656 2.21875 -2.671875 C 2.21875 -3.503906 2.503906 -4.195312 3.078125 -4.75 C 3.660156 -5.300781 4.390625 -5.578125 5.265625 -5.578125 C 6.117188 -5.578125 6.828125 -5.300781 7.390625 -4.75 C 7.960938 -4.195312 8.25 -3.503906 8.25 -2.671875 C 8.25 -1.847656 7.960938 -1.148438 7.390625 -0.578125 C 6.828125 -0.015625 6.117188 0.265625 5.265625 0.265625 Z M 5.265625 0.265625 "/></g></g></g></svg>